<svg id="page300000108" xmlns:xlink="http://www.w3.org/1999/xlink" ed:name="algorithm" height="1408" xmlns="http://www.w3.org/2000/svg" viewBox="0 0 717 1408" xmlns:ev="http://www.w3.org/2001/xml-events" xmlns:ed="https://www.edrawsoft.cn/xml/2017/SVGExtensions/" width="717" ed:vSpacing="30" ed:hSpacing="30"><style type="text/css"><![CDATA[
g[ed\:togtopicid],g[ed\:hyperlink],g[ed\:comment],g[ed\:note] {cursor:pointer;}
g[id] {-moz-user-select: none;-ms-user-select: none;user-select: none;}
svg text::selection,svg tspan::selection{background-color: #4285f4;color: #ffffff;fill: #ffffff;}
.st34 {fill:#454545;font-family:微软雅黑;font-size:14.25pt;font-weight:bold}
.st33 {fill:#454545;font-family:微软雅黑;font-size:18pt;font-weight:bold}
.st35 {fill:#454545;font-family:微软雅黑;font-size:9.75pt}
]]></style><defs/><rect height="1408" fill="#ffffff" y="0" x="0" width="717"/><path id="116" transform="matrix(1,0,0,1,134.67,452.1)" fill="#ff7575" stroke="#ff7575" ed:parentid="183" d="M-33.9,146.2C-34.5,147.9,-33.8,149.4,-32.6,149.9C-31.3,150.4,-29.8,149.6,-29.2,147.9C-28.4,145.7,-27.7,143.4,-27,141.1C-26.3,138.9,-25.7,136.6,-25.1,134.3C-24.6,132,-24,129.7,-23.5,127.4C-23,125.1,-22.6,122.8,-22.1,120.5C-21.7,118.2,-21.3,115.8,-20.9,113.5C-20.5,111.2,-20.2,108.9,-19.8,106.6C-19.5,104.2,-19.2,101.9,-18.9,99.6C-18.6,97.3,-18.3,94.9,-18,92.6C-17.8,90.3,-17.5,88,-17.3,85.6C-17,83.3,-16.8,81,-16.6,78.6C-16.4,76.3,-16.1,74,-15.9,71.7C-15.7,69.3,-15.5,67,-15.4,64.7C-15.2,62.3,-15,60,-14.8,57.7C-14.6,55.3,-14.5,53,-14.3,50.7C-14.2,48.4,-14,46,-13.8,43.7C-13.7,41.4,-13.5,39,-13.4,36.7C-13.2,34.4,-13.1,32,-13,29.7C-12.8,27.4,-12.7,25.1,-12.5,22.7C-12.4,20.4,-12.2,18.1,-12.1,15.7C-12,13.4,-11.8,11.1,-11.7,8.7C-11.5,6.4,-11.4,4.1,-11.2,1.8C-11.1,-0.6,-11,-2.9,-10.8,-5.2C-10.7,-7.5,-10.5,-9.9,-10.3,-12.2C-10.2,-14.5,-10,-16.9,-9.9,-19.2C-9.7,-21.5,-9.5,-23.8,-9.4,-26.2C-9.2,-28.5,-9,-30.8,-8.8,-33.1C-8.6,-35.4,-8.4,-37.8,-8.2,-40.1C-8,-42.4,-7.8,-44.7,-7.6,-47.1C-7.4,-49.4,-7.2,-51.7,-6.9,-54C-6.7,-56.3,-6.5,-58.6,-6.2,-61C-5.9,-63.3,-5.7,-65.6,-5.4,-67.9C-5.1,-70.2,-4.8,-72.5,-4.5,-74.8C-4.2,-77.1,-3.9,-79.4,-3.5,-81.7C-3.2,-84,-2.8,-86.3,-2.5,-88.6C-2.1,-90.9,-1.7,-93.2,-1.3,-95.5C-0.9,-97.8,-0.4,-100.1,0,-102.4C0.5,-104.6,1,-106.9,1.5,-109.2C2,-111.5,2.6,-113.7,3.1,-116C3.7,-118.2,4.3,-120.5,5,-122.7C5.6,-124.9,6.3,-127.1,7.1,-129.3C7.8,-131.5,8.6,-133.7,9.4,-135.9C10.2,-138.1,11.1,-140.2,12,-142.3C13,-144.4,14,-146.5,15.1,-148.6C16.1,-150.6,17.3,-152.6,18.5,-154.6C19.8,-156.5,21.1,-158.4,22.5,-160.3C23.9,-162.1,25.4,-163.8,27,-165.5C28.7,-167.1,30.4,-168.6,32.2,-170C34.1,-171.4,36,-172.6,38,-173.7C40.1,-174.8,42.2,-175.7,44.4,-176.4C46.6,-177.1,48.8,-177.7,51.1,-178C53.4,-178.3,55.6,-178.4,57.9,-178.5C58.2,-178.5,58.5,-178.7,58.5,-179C58.5,-179.3,58.2,-179.5,57.9,-179.5C55.6,-179.4,53.3,-179.4,50.9,-179.1C48.6,-178.7,46.3,-178.2,44,-177.5C41.8,-176.8,39.6,-175.9,37.5,-174.8C35.4,-173.7,33.3,-172.5,31.4,-171.1C29.5,-169.7,27.7,-168.1,26.1,-166.4C24.4,-164.8,22.8,-163,21.3,-161.2C19.9,-159.3,18.5,-157.4,17.2,-155.4C15.9,-153.4,14.7,-151.4,13.6,-149.3C12.5,-147.3,11.5,-145.2,10.5,-143C9.5,-140.9,8.6,-138.7,7.7,-136.5C6.9,-134.4,6.1,-132.2,5.3,-129.9C4.5,-127.7,3.8,-125.5,3.1,-123.2C2.4,-121,1.8,-118.7,1.2,-116.5C0.6,-114.2,0,-111.9,-0.5,-109.7C-1.1,-107.4,-1.6,-105.1,-2.1,-102.8C-2.6,-100.5,-3,-98.2,-3.5,-95.9C-3.9,-93.6,-4.4,-91.3,-4.8,-89C-5.2,-86.7,-5.6,-84.4,-5.9,-82.1C-6.3,-79.8,-6.6,-77.5,-7,-75.2C-7.3,-72.9,-7.6,-70.5,-7.9,-68.2C-8.2,-65.9,-8.5,-63.6,-8.8,-61.3C-9.1,-58.9,-9.4,-56.6,-9.6,-54.3C-9.9,-52,-10.2,-49.7,-10.4,-47.3C-10.6,-45,-10.9,-42.7,-11.1,-40.4C-11.3,-38,-11.6,-35.7,-11.8,-33.4C-12,-31.1,-12.2,-28.7,-12.4,-26.4C-12.6,-24.1,-12.8,-21.7,-13,-19.4C-13.2,-17.1,-13.3,-14.8,-13.5,-12.4C-13.7,-10.1,-13.9,-7.8,-14.1,-5.4C-14.2,-3.1,-14.4,-0.8,-14.6,1.5C-14.8,3.9,-14.9,6.2,-15.1,8.5C-15.3,10.8,-15.4,13.2,-15.6,15.5C-15.8,17.8,-15.9,20.2,-16.1,22.5C-16.3,24.8,-16.4,27.1,-16.6,29.5C-16.8,31.8,-17,34.1,-17.1,36.4C-17.3,38.8,-17.5,41.1,-17.7,43.4C-17.8,45.7,-18,48.1,-18.2,50.4C-18.4,52.7,-18.6,55,-18.8,57.4C-19,59.7,-19.2,62,-19.4,64.3C-19.6,66.6,-19.8,69,-20.1,71.3C-20.3,73.6,-20.5,75.9,-20.8,78.2C-21,80.5,-21.3,82.8,-21.5,85.2C-21.8,87.5,-22.1,89.8,-22.4,92.1C-22.7,94.4,-23,96.7,-23.3,99C-23.6,101.3,-24,103.6,-24.3,105.9C-24.7,108.2,-25.1,110.5,-25.5,112.7C-25.9,115,-26.3,117.3,-26.7,119.6C-27.2,121.8,-27.7,124.1,-28.2,126.4C-28.7,128.6,-29.2,130.9,-29.8,133.1C-30.4,135.3,-31,137.5,-31.7,139.7C-32.4,141.9,-33.1,144.1,-33.9,146.2z" stroke-linejoin="round" ed:tosuperid="184" stroke-linecap="round"/><path id="117" transform="matrix(1,0,0,1,284.11,194.48)" stroke="#ff7575" fill="none" ed:parentid="184" d="M-17.5,78.6C7,78.6,-17.5,-78.6,17.5,-78.6" stroke-width="2" stroke-linejoin="round" ed:tosuperid="185" stroke-linecap="round"/><path id="118" transform="matrix(1,0,0,1,363.21,79.31)" stroke="#ff7575" fill="none" ed:parentid="185" d="M-17.5,36.6C4.2,36.6,-10.9,-36.6,17.5,-36.6" stroke-width="2" stroke-linejoin="round" ed:tosuperid="186" stroke-linecap="round"/><path id="119" transform="matrix(1,0,0,1,442.31,42.75)" stroke="#ff7575" fill="none" ed:parentid="186" d="M-17.5,0C-3.5,0,7,0,17.5,0" stroke-width="2" stroke-linejoin="round" ed:tosuperid="187" stroke-linecap="round"/><path id="120" transform="matrix(1,0,0,1,363.21,93.94)" stroke="#ff7575" fill="none" ed:parentid="185" d="M-17.5,21.9C1.5,21.9,-4.6,-21.9,17.5,-21.9" stroke-width="2" stroke-linejoin="round" ed:tosuperid="188" stroke-linecap="round"/><path id="121" transform="matrix(1,0,0,1,455.31,72)" stroke="#ff7575" fill="none" ed:parentid="188" d="M-17.5,0C-3.5,0,7,0,17.5,0" stroke-width="2" stroke-linejoin="round" ed:tosuperid="189" stroke-linecap="round"/><path id="122" transform="matrix(1,0,0,1,363.21,108.56)" stroke="#ff7575" fill="none" ed:parentid="185" d="M-17.5,7.3C-1.8,7.3,3,-7.3,17.5,-7.3" stroke-width="2" stroke-linejoin="round" ed:tosuperid="190" stroke-linecap="round"/><path id="123" transform="matrix(1,0,0,1,363.21,123.19)" stroke="#ff7575" fill="none" ed:parentid="185" d="M-17.5,-7.3C-1.8,-7.3,3,7.3,17.5,7.3" stroke-width="2" stroke-linejoin="round" ed:tosuperid="191" stroke-linecap="round"/><path id="124" transform="matrix(1,0,0,1,363.21,137.81)" stroke="#ff7575" fill="none" ed:parentid="185" d="M-17.5,-21.9C1.5,-21.9,-4.6,21.9,17.5,21.9" stroke-width="2" stroke-linejoin="round" ed:tosuperid="192" stroke-linecap="round"/><path id="125" transform="matrix(1,0,0,1,363.21,152.44)" stroke="#ff7575" fill="none" ed:parentid="185" d="M-17.5,-36.6C4.2,-36.6,-10.9,36.6,17.5,36.6" stroke-width="2" stroke-linejoin="round" ed:tosuperid="193" stroke-linecap="round"/><path id="126" transform="matrix(1,0,0,1,284.11,351.7)" stroke="#ff7575" fill="none" ed:parentid="184" d="M-17.5,-78.6C7,-78.6,-17.5,78.6,17.5,78.6" stroke-width="2" stroke-linejoin="round" ed:tosuperid="194" stroke-linecap="round"/><path id="127" transform="matrix(1,0,0,1,389.21,390.09)" stroke="#ff7575" fill="none" ed:parentid="194" d="M-17.5,40.2C4.7,40.2,-12.2,-40.2,17.5,-40.2" stroke-width="2" stroke-linejoin="round" ed:tosuperid="195" stroke-linecap="round"/><path id="128" transform="matrix(1,0,0,1,554.75,291.38)" stroke="#ff7575" fill="none" ed:parentid="195" d="M-17.5,58.5C6.7,58.5,-16.7,-58.5,17.5,-58.5" stroke-width="2" stroke-linejoin="round" ed:tosuperid="196" stroke-linecap="round"/><path id="129" transform="matrix(1,0,0,1,554.75,320.63)" stroke="#ff7575" fill="none" ed:parentid="195" d="M-17.5,29.3C2.9,29.3,-7.9,-29.3,17.5,-29.3" stroke-width="2" stroke-linejoin="round" ed:tosuperid="197" stroke-linecap="round"/><path id="130" transform="matrix(1,0,0,1,554.75,349.88)" stroke="#ff7575" fill="none" ed:parentid="195" d="M-17.5,0C-3.5,0,7,0,17.5,0" stroke-width="2" stroke-linejoin="round" ed:tosuperid="198" stroke-linecap="round"/><path id="131" transform="matrix(1,0,0,1,554.75,371.81)" stroke="#ff7575" fill="none" ed:parentid="195" d="M-17.5,-21.9C1.5,-21.9,-4.6,21.9,17.5,21.9" stroke-width="2" stroke-linejoin="round" ed:tosuperid="199" stroke-linecap="round"/><path id="132" transform="matrix(1,0,0,1,554.75,386.44)" stroke="#ff7575" fill="none" ed:parentid="195" d="M-17.5,-36.6C4.2,-36.6,-10.9,36.6,17.5,36.6" stroke-width="2" stroke-linejoin="round" ed:tosuperid="200" stroke-linecap="round"/><path id="133" transform="matrix(1,0,0,1,389.21,470.53)" stroke="#ff7575" fill="none" ed:parentid="194" d="M-17.5,-40.2C4.7,-40.2,-12.2,40.2,17.5,40.2" stroke-width="2" stroke-linejoin="round" ed:tosuperid="201" stroke-linecap="round"/><path id="134" transform="matrix(1,0,0,1,633.85,342.56)" stroke="#ff7575" fill="none" ed:parentid="198" d="M-17.5,7.3C-1.8,7.3,3,-7.3,17.5,-7.3" stroke-width="2" stroke-linejoin="round" ed:tosuperid="202" stroke-linecap="round"/><path id="135" transform="matrix(1,0,0,1,633.85,284.06)" stroke="#ff7575" fill="none" ed:parentid="197" d="M-17.5,7.3C-1.8,7.3,3,-7.3,17.5,-7.3" stroke-width="2" stroke-linejoin="round" ed:tosuperid="203" stroke-linecap="round"/><path id="136" transform="matrix(1,0,0,1,633.85,225.56)" stroke="#ff7575" fill="none" ed:parentid="196" d="M-17.5,7.3C-1.8,7.3,3,-7.3,17.5,-7.3" stroke-width="2" stroke-linejoin="round" ed:tosuperid="204" stroke-linecap="round"/><path id="137" transform="matrix(1,0,0,1,633.85,240.19)" stroke="#ff7575" fill="none" ed:parentid="196" d="M-17.5,-7.3C-1.8,-7.3,3,7.3,17.5,7.3" stroke-width="2" stroke-linejoin="round" ed:tosuperid="205" stroke-linecap="round"/><path id="138" transform="matrix(1,0,0,1,633.85,357.19)" stroke="#ff7575" fill="none" ed:parentid="198" d="M-17.5,-7.3C-1.8,-7.3,3,7.3,17.5,7.3" stroke-width="2" stroke-linejoin="round" ed:tosuperid="206" stroke-linecap="round"/><path id="139" transform="matrix(1,0,0,1,633.85,298.69)" stroke="#ff7575" fill="none" ed:parentid="197" d="M-17.5,-7.3C-1.8,-7.3,3,7.3,17.5,7.3" stroke-width="2" stroke-linejoin="round" ed:tosuperid="207" stroke-linecap="round"/><path id="140" transform="matrix(1,0,0,1,633.85,459.56)" stroke="#ff7575" fill="none" ed:parentid="210" d="M-17.5,7.3C-1.8,7.3,3,-7.3,17.5,-7.3" stroke-width="2" stroke-linejoin="round" ed:tosuperid="208" stroke-linecap="round"/><path id="141" transform="matrix(1,0,0,1,633.85,474.19)" stroke="#ff7575" fill="none" ed:parentid="210" d="M-17.5,-7.3C-1.8,-7.3,3,7.3,17.5,7.3" stroke-width="2" stroke-linejoin="round" ed:tosuperid="209" stroke-linecap="round"/><path id="142" transform="matrix(1,0,0,1,554.75,408.38)" stroke="#ff7575" fill="none" ed:parentid="195" d="M-17.5,-58.5C6.7,-58.5,-16.7,58.5,17.5,58.5" stroke-width="2" stroke-linejoin="round" ed:tosuperid="210" stroke-linecap="round"/><path id="143" transform="matrix(1,0,0,1,134.67,810.12)" fill="#5fb7f1" stroke="#5fb7f1" ed:parentid="183" d="M-29.2,-147.9C-29.8,-149.6,-31.3,-150.4,-32.6,-149.9C-33.8,-149.4,-34.5,-147.9,-33.9,-146.2C-33.1,-144.1,-32.4,-141.9,-31.7,-139.7C-31,-137.5,-30.4,-135.3,-29.8,-133.1C-29.2,-130.9,-28.7,-128.6,-28.2,-126.4C-27.7,-124.1,-27.2,-121.8,-26.7,-119.6C-26.3,-117.3,-25.9,-115,-25.5,-112.7C-25.1,-110.5,-24.7,-108.2,-24.3,-105.9C-24,-103.6,-23.6,-101.3,-23.3,-99C-23,-96.7,-22.7,-94.4,-22.4,-92.1C-22.1,-89.8,-21.8,-87.5,-21.5,-85.2C-21.3,-82.8,-21,-80.5,-20.8,-78.2C-20.5,-75.9,-20.3,-73.6,-20.1,-71.3C-19.8,-69,-19.6,-66.6,-19.4,-64.3C-19.2,-62,-19,-59.7,-18.8,-57.4C-18.6,-55,-18.4,-52.7,-18.2,-50.4C-18,-48.1,-17.8,-45.7,-17.7,-43.4C-17.5,-41.1,-17.3,-38.8,-17.1,-36.4C-17,-34.1,-16.8,-31.8,-16.6,-29.5C-16.4,-27.1,-16.3,-24.8,-16.1,-22.5C-15.9,-20.2,-15.8,-17.8,-15.6,-15.5C-15.4,-13.2,-15.3,-10.8,-15.1,-8.5C-14.9,-6.2,-14.8,-3.9,-14.6,-1.5C-14.4,0.8,-14.2,3.1,-14.1,5.4C-13.9,7.8,-13.7,10.1,-13.5,12.4C-13.3,14.8,-13.2,17.1,-13,19.4C-12.8,21.7,-12.6,24.1,-12.4,26.4C-12.2,28.7,-12,31.1,-11.8,33.4C-11.6,35.7,-11.3,38,-11.1,40.4C-10.9,42.7,-10.6,45,-10.4,47.3C-10.2,49.7,-9.9,52,-9.6,54.3C-9.4,56.6,-9.1,58.9,-8.8,61.3C-8.5,63.6,-8.2,65.9,-7.9,68.2C-7.6,70.5,-7.3,72.9,-7,75.2C-6.6,77.5,-6.3,79.8,-5.9,82.1C-5.6,84.4,-5.2,86.7,-4.8,89C-4.4,91.3,-3.9,93.6,-3.5,95.9C-3,98.2,-2.6,100.5,-2.1,102.8C-1.6,105.1,-1.1,107.4,-0.5,109.7C0,111.9,0.6,114.2,1.2,116.5C1.8,118.7,2.4,121,3.1,123.2C3.8,125.5,4.5,127.7,5.3,129.9C6.1,132.2,6.9,134.4,7.7,136.5C8.6,138.7,9.5,140.9,10.5,143C11.5,145.2,12.5,147.3,13.6,149.3C14.7,151.4,15.9,153.4,17.2,155.4C18.5,157.4,19.9,159.3,21.3,161.2C22.8,163,24.4,164.8,26.1,166.4C27.7,168.1,29.5,169.7,31.4,171.1C33.3,172.5,35.4,173.7,37.5,174.8C39.6,175.9,41.8,176.8,44,177.5C46.3,178.2,48.6,178.7,50.9,179.1C53.3,179.4,55.6,179.4,57.9,179.5C58.2,179.5,58.5,179.3,58.5,179C58.5,178.7,58.2,178.5,57.9,178.5C55.6,178.4,53.4,178.3,51.1,178C48.8,177.7,46.6,177.1,44.4,176.4C42.2,175.7,40.1,174.8,38,173.7C36,172.6,34.1,171.4,32.2,170C30.4,168.6,28.7,167.1,27,165.5C25.4,163.8,23.9,162.1,22.5,160.3C21.1,158.4,19.8,156.5,18.5,154.6C17.3,152.6,16.1,150.6,15.1,148.6C14,146.5,13,144.4,12,142.3C11.1,140.2,10.2,138.1,9.4,135.9C8.6,133.7,7.8,131.5,7.1,129.3C6.3,127.1,5.6,124.9,5,122.7C4.3,120.5,3.7,118.2,3.1,116C2.6,113.7,2,111.5,1.5,109.2C1,106.9,0.5,104.6,0,102.4C-0.4,100.1,-0.9,97.8,-1.3,95.5C-1.7,93.2,-2.1,90.9,-2.5,88.6C-2.8,86.3,-3.2,84,-3.5,81.7C-3.9,79.4,-4.2,77.1,-4.5,74.8C-4.8,72.5,-5.1,70.2,-5.4,67.9C-5.7,65.6,-5.9,63.3,-6.2,61C-6.5,58.6,-6.7,56.3,-6.9,54C-7.2,51.7,-7.4,49.4,-7.6,47.1C-7.8,44.7,-8,42.4,-8.2,40.1C-8.4,37.8,-8.6,35.4,-8.8,33.1C-9,30.8,-9.2,28.5,-9.4,26.2C-9.5,23.8,-9.7,21.5,-9.9,19.2C-10,16.9,-10.2,14.5,-10.3,12.2C-10.5,9.9,-10.7,7.5,-10.8,5.2C-11,2.9,-11.1,0.6,-11.2,-1.8C-11.4,-4.1,-11.5,-6.4,-11.7,-8.7C-11.8,-11.1,-12,-13.4,-12.1,-15.7C-12.2,-18.1,-12.4,-20.4,-12.5,-22.7C-12.7,-25.1,-12.8,-27.4,-13,-29.7C-13.1,-32,-13.2,-34.4,-13.4,-36.7C-13.5,-39,-13.7,-41.4,-13.8,-43.7C-14,-46,-14.2,-48.4,-14.3,-50.7C-14.5,-53,-14.6,-55.3,-14.8,-57.7C-15,-60,-15.2,-62.3,-15.4,-64.7C-15.5,-67,-15.7,-69.3,-15.9,-71.7C-16.1,-74,-16.4,-76.3,-16.6,-78.6C-16.8,-81,-17,-83.3,-17.3,-85.6C-17.5,-88,-17.8,-90.3,-18,-92.6C-18.3,-94.9,-18.6,-97.3,-18.9,-99.6C-19.2,-101.9,-19.5,-104.2,-19.8,-106.6C-20.2,-108.9,-20.5,-111.2,-20.9,-113.5C-21.3,-115.8,-21.7,-118.2,-22.1,-120.5C-22.6,-122.8,-23,-125.1,-23.5,-127.4C-24,-129.7,-24.6,-132,-25.1,-134.3C-25.7,-136.6,-26.3,-138.9,-27,-141.1C-27.7,-143.4,-28.4,-145.7,-29.2,-147.9z" stroke-linejoin="round" ed:tosuperid="211" stroke-linecap="round"/><path id="144" transform="matrix(1,0,0,1,322.11,792.44)" stroke="#5fb7f1" fill="none" ed:parentid="211" d="M-17.5,196.7C7,196.7,-17.5,-196.7,17.5,-196.7" stroke-width="2" stroke-linejoin="round" ed:tosuperid="212" stroke-linecap="round"/><path id="145" transform="matrix(1,0,0,1,427.21,581.13)" stroke="#5fb7f1" fill="none" ed:parentid="212" d="M-17.5,14.6C-0.1,14.6,-0.9,-14.6,17.5,-14.6" stroke-width="2" stroke-linejoin="round" ed:tosuperid="213" stroke-linecap="round"/><path id="146" transform="matrix(1,0,0,1,427.21,595.75)" stroke="#5fb7f1" fill="none" ed:parentid="212" d="M-17.5,0C-3.5,0,7,0,17.5,0" stroke-width="2" stroke-linejoin="round" ed:tosuperid="214" stroke-linecap="round"/><path id="147" transform="matrix(1,0,0,1,322.11,821.69)" stroke="#5fb7f1" fill="none" ed:parentid="211" d="M-17.5,167.4C7,167.4,-17.5,-167.4,17.5,-167.4" stroke-width="2" stroke-linejoin="round" ed:tosuperid="215" stroke-linecap="round"/><path id="148" transform="matrix(1,0,0,1,322.11,894.81)" stroke="#5fb7f1" fill="none" ed:parentid="211" d="M-17.5,94.3C7,94.3,-17.5,-94.3,17.5,-94.3" stroke-width="2" stroke-linejoin="round" ed:tosuperid="216" stroke-linecap="round"/><path id="149" transform="matrix(1,0,0,1,322.11,966.44)" stroke="#5fb7f1" fill="none" ed:parentid="211" d="M-17.5,22.7C1.6,22.7,-4.9,-22.7,17.5,-22.7" stroke-width="2" stroke-linejoin="round" ed:tosuperid="217" stroke-linecap="round"/><path id="150" transform="matrix(1,0,0,1,322.11,981.06)" stroke="#5fb7f1" fill="none" ed:parentid="211" d="M-17.5,8.1C-1.6,8.1,2.6,-8.1,17.5,-8.1" stroke-width="2" stroke-linejoin="round" ed:tosuperid="218" stroke-linecap="round"/><path id="151" transform="matrix(1,0,0,1,322.11,995.69)" stroke="#5fb7f1" fill="none" ed:parentid="211" d="M-17.5,-6.6C-2,-6.6,3.4,6.6,17.5,6.6" stroke-width="2" stroke-linejoin="round" ed:tosuperid="219" stroke-linecap="round"/><path id="152" transform="matrix(1,0,0,1,322.11,1010.31)" stroke="#5fb7f1" fill="none" ed:parentid="211" d="M-17.5,-21.2C1.3,-21.2,-4.2,21.2,17.5,21.2" stroke-width="2" stroke-linejoin="round" ed:tosuperid="220" stroke-linecap="round"/><path id="153" transform="matrix(1,0,0,1,401.21,973)" stroke="#5fb7f1" fill="none" ed:parentid="218" d="M-17.5,0C-3.5,0,7,0,17.5,0" stroke-width="2" stroke-linejoin="round" ed:tosuperid="221" stroke-linecap="round"/><path id="154" transform="matrix(1,0,0,1,427.21,742)" stroke="#5fb7f1" fill="none" ed:parentid="216" d="M-17.5,58.5C6.7,58.5,-16.7,-58.5,17.5,-58.5" stroke-width="2" stroke-linejoin="round" ed:tosuperid="222" stroke-linecap="round"/><path id="155" transform="matrix(1,0,0,1,427.21,756.63)" stroke="#5fb7f1" fill="none" ed:parentid="216" d="M-17.5,43.9C5.2,43.9,-13.4,-43.9,17.5,-43.9" stroke-width="2" stroke-linejoin="round" ed:tosuperid="223" stroke-linecap="round"/><path id="156" transform="matrix(1,0,0,1,427.21,771.25)" stroke="#5fb7f1" fill="none" ed:parentid="216" d="M-17.5,29.3C2.9,29.3,-7.9,-29.3,17.5,-29.3" stroke-width="2" stroke-linejoin="round" ed:tosuperid="224" stroke-linecap="round"/><path id="157" transform="matrix(1,0,0,1,427.21,785.88)" stroke="#5fb7f1" fill="none" ed:parentid="216" d="M-17.5,14.6C-0.1,14.6,-0.9,-14.6,17.5,-14.6" stroke-width="2" stroke-linejoin="round" ed:tosuperid="225" stroke-linecap="round"/><path id="158" transform="matrix(1,0,0,1,322.11,1076.13)" stroke="#5fb7f1" fill="none" ed:parentid="211" d="M-17.5,-87C7,-87,-17.5,87,17.5,87" stroke-width="2" stroke-linejoin="round" ed:tosuperid="226" stroke-linecap="round"/><path id="159" transform="matrix(1,0,0,1,401.21,1185.06)" stroke="#5fb7f1" fill="none" ed:parentid="226" d="M-17.5,-21.9C1.5,-21.9,-4.6,21.9,17.5,21.9" stroke-width="2" stroke-linejoin="round" ed:tosuperid="227" stroke-linecap="round"/><path id="160" transform="matrix(1,0,0,1,427.21,610.38)" stroke="#5fb7f1" fill="none" ed:parentid="212" d="M-17.5,-14.6C-0.1,-14.6,-0.9,14.6,17.5,14.6" stroke-width="2" stroke-linejoin="round" ed:tosuperid="228" stroke-linecap="round"/><path id="161" transform="matrix(1,0,0,1,427.21,800.5)" stroke="#5fb7f1" fill="none" ed:parentid="216" d="M-17.5,0C-3.5,0,7,0,17.5,0" stroke-width="2" stroke-linejoin="round" ed:tosuperid="229" stroke-linecap="round"/><path id="162" transform="matrix(1,0,0,1,322.11,1120)" stroke="#5fb7f1" fill="none" ed:parentid="211" d="M-17.5,-130.9C7,-130.9,-17.5,130.9,17.5,130.9" stroke-width="2" stroke-linejoin="round" ed:tosuperid="230" stroke-linecap="round"/><path id="163" transform="matrix(1,0,0,1,401.21,1243.56)" stroke="#5fb7f1" fill="none" ed:parentid="230" d="M-17.5,7.3C-1.8,7.3,3,-7.3,17.5,-7.3" stroke-width="2" stroke-linejoin="round" ed:tosuperid="231" stroke-linecap="round"/><path id="164" transform="matrix(1,0,0,1,322.11,1032.25)" stroke="#5fb7f1" fill="none" ed:parentid="211" d="M-17.5,-43.1C5.1,-43.1,-13.2,43.1,17.5,43.1" stroke-width="2" stroke-linejoin="round" ed:tosuperid="232" stroke-linecap="round"/><path id="165" transform="matrix(1,0,0,1,453.21,1068.06)" stroke="#5fb7f1" fill="none" ed:parentid="232" d="M-17.5,7.3C-1.8,7.3,3,-7.3,17.5,-7.3" stroke-width="2" stroke-linejoin="round" ed:tosuperid="233" stroke-linecap="round"/><path id="166" transform="matrix(1,0,0,1,401.21,1258.19)" stroke="#5fb7f1" fill="none" ed:parentid="230" d="M-17.5,-7.3C-1.8,-7.3,3,7.3,17.5,7.3" stroke-width="2" stroke-linejoin="round" ed:tosuperid="234" stroke-linecap="round"/><path id="167" transform="matrix(1,0,0,1,322.11,1141.94)" stroke="#5fb7f1" fill="none" ed:parentid="211" d="M-17.5,-152.8C7,-152.8,-17.5,152.8,17.5,152.8" stroke-width="2" stroke-linejoin="round" ed:tosuperid="235" stroke-linecap="round"/><path id="168" transform="matrix(1,0,0,1,453.21,1294.75)" stroke="#5fb7f1" fill="none" ed:parentid="235" d="M-17.5,0C-3.5,0,7,0,17.5,0" stroke-width="2" stroke-linejoin="round" ed:tosuperid="236" stroke-linecap="round"/><path id="169" transform="matrix(1,0,0,1,427.21,815.13)" stroke="#5fb7f1" fill="none" ed:parentid="216" d="M-17.5,-14.6C-0.1,-14.6,-0.9,14.6,17.5,14.6" stroke-width="2" stroke-linejoin="round" ed:tosuperid="237" stroke-linecap="round"/><path id="170" transform="matrix(1,0,0,1,427.21,829.75)" stroke="#5fb7f1" fill="none" ed:parentid="216" d="M-17.5,-29.3C2.9,-29.3,-7.9,29.3,17.5,29.3" stroke-width="2" stroke-linejoin="round" ed:tosuperid="238" stroke-linecap="round"/><path id="171" transform="matrix(1,0,0,1,453.21,1082.69)" stroke="#5fb7f1" fill="none" ed:parentid="232" d="M-17.5,-7.3C-1.8,-7.3,3,7.3,17.5,7.3" stroke-width="2" stroke-linejoin="round" ed:tosuperid="239" stroke-linecap="round"/><path id="172" transform="matrix(1,0,0,1,322.11,1156.56)" stroke="#5fb7f1" fill="none" ed:parentid="211" d="M-17.5,-167.4C7,-167.4,-17.5,167.4,17.5,167.4" stroke-width="2" stroke-linejoin="round" ed:tosuperid="240" stroke-linecap="round"/><path id="173" transform="matrix(1,0,0,1,414.21,1324)" stroke="#5fb7f1" fill="none" ed:parentid="240" d="M-17.5,0C-3.5,0,7,0,17.5,0" stroke-width="2" stroke-linejoin="round" ed:tosuperid="241" stroke-linecap="round"/><path id="174" transform="matrix(1,0,0,1,427.21,844.38)" stroke="#5fb7f1" fill="none" ed:parentid="216" d="M-17.5,-43.9C5.2,-43.9,-13.4,43.9,17.5,43.9" stroke-width="2" stroke-linejoin="round" ed:tosuperid="242" stroke-linecap="round"/><path id="175" transform="matrix(1,0,0,1,427.21,859)" stroke="#5fb7f1" fill="none" ed:parentid="216" d="M-17.5,-58.5C6.7,-58.5,-16.7,58.5,17.5,58.5" stroke-width="2" stroke-linejoin="round" ed:tosuperid="243" stroke-linecap="round"/><path id="176" transform="matrix(1,0,0,1,322.11,1171.19)" stroke="#5fb7f1" fill="none" ed:parentid="211" d="M-17.5,-182.1C7,-182.1,-17.5,182.1,17.5,182.1" stroke-width="2" stroke-linejoin="round" ed:tosuperid="244" stroke-linecap="round"/><path id="177" transform="matrix(1,0,0,1,427.21,1353.25)" stroke="#5fb7f1" fill="none" ed:parentid="244" d="M-17.5,0C-3.5,0,7,0,17.5,0" stroke-width="2" stroke-linejoin="round" ed:tosuperid="245" stroke-linecap="round"/><path id="178" transform="matrix(1,0,0,1,401.21,1141.19)" stroke="#5fb7f1" fill="none" ed:parentid="226" d="M-17.5,21.9C1.5,21.9,-4.6,-21.9,17.5,-21.9" stroke-width="2" stroke-linejoin="round" ed:tosuperid="246" stroke-linecap="round"/><path id="179" transform="matrix(1,0,0,1,401.21,1155.81)" stroke="#5fb7f1" fill="none" ed:parentid="226" d="M-17.5,7.3C-1.8,7.3,3,-7.3,17.5,-7.3" stroke-width="2" stroke-linejoin="round" ed:tosuperid="247" stroke-linecap="round"/><path id="180" transform="matrix(1,0,0,1,401.21,1170.44)" stroke="#5fb7f1" fill="none" ed:parentid="226" d="M-17.5,-7.3C-1.8,-7.3,3,7.3,17.5,7.3" stroke-width="2" stroke-linejoin="round" ed:tosuperid="248" stroke-linecap="round"/><path id="181" transform="matrix(1,0,0,1,322.11,1185.81)" stroke="#5fb7f1" fill="none" ed:parentid="211" d="M-17.5,-196.7C7,-196.7,-17.5,196.7,17.5,196.7" stroke-width="2" stroke-linejoin="round" ed:tosuperid="249" stroke-linecap="round"/><path id="182" transform="matrix(1,0,0,1,414.21,1382.5)" stroke="#5fb7f1" fill="none" ed:parentid="249" d="M-17.5,0C-3.5,0,7,0,17.5,0" stroke-width="2" stroke-linejoin="round" ed:tosuperid="250" stroke-linecap="round"/><g id="183" transform="matrix(1,0,0,1,24,598.61)" ed:layout="rightmap" ed:width="105.56" ed:topictype="mainidea" ed:height="65"><path fill="#ffffff" stroke="#ffffff" d="M32.5,0L73.1,0C91,0,105.6,14.6,105.6,32.5C105.6,50.4,91,65,73.1,65L32.5,65C14.6,65,0,50.4,0,32.5C0,14.6,14.6,0,32.5,0z" stroke-width="4" stroke-linejoin="round"/><text class="st33"><tspan style="white-space:pre" y="43.5" x="28" textLength="48">算法</tspan></text></g><g id="184" transform="matrix(1,0,0,1,192.56,235.34)" ed:parentid="183" ed:width="74" ed:height="37.75"><path stroke="#ff7575" fill="none" d="M0,37.8L74,37.8" stroke-width="2" stroke-linejoin="round"/><text class="st34"><tspan style="white-space:pre" y="27.15" x="17" textLength="38">排序</tspan></text></g><g id="185" transform="matrix(1,0,0,1,301.66,93.13)" ed:parentid="184" ed:width="44" ed:height="22.75"><path stroke="#ff7575" fill="none" d="M0,22.8L44,22.8" stroke-width="2" stroke-linejoin="round"/><text class="st35"><tspan style="white-space:pre" y="16.525" x="8" textLength="26">术语</tspan></text></g><g id="186" transform="matrix(1,0,0,1,380.76,20)" ed:parentid="185" ed:width="44" ed:height="22.75"><path stroke="#ff7575" fill="none" d="M0,22.8L44,22.8" stroke-width="2" stroke-linejoin="round"/><text class="st35"><tspan style="white-space:pre" y="16.525" x="8" textLength="26">稳定</tspan></text></g><g id="187" transform="matrix(1,0,0,1,459.86,20)" ed:parentid="186" ed:width="180.125" ed:height="22.75"><path stroke="#ff7575" fill="none" d="M0,22.8L180.1,22.8" stroke-width="2" stroke-linejoin="round"/><text class="st35"><tspan style="white-space:pre" y="16.525" x="8" textLength="162">a原在b前,当a=b时依然在前</tspan></text></g><g id="188" transform="matrix(1,0,0,1,380.76,49.25)" ed:parentid="185" ed:width="57" ed:height="22.75"><path stroke="#ff7575" fill="none" d="M0,22.8L57,22.8" stroke-width="2" stroke-linejoin="round"/><text class="st35"><tspan style="white-space:pre" y="16.525" x="8" textLength="39">不稳定</tspan></text></g><g id="189" transform="matrix(1,0,0,1,472.86,49.25)" ed:parentid="188" ed:width="197.234375" ed:height="22.75"><path stroke="#ff7575" fill="none" d="M0,22.8L197.2,22.8" stroke-width="2" stroke-linejoin="round"/><text class="st35"><tspan style="white-space:pre" y="16.525" x="8" textLength="179">a原在b前,当a=b时,可能在之后</tspan></text></g><g id="190" transform="matrix(1,0,0,1,380.76,78.5)" ed:parentid="185" ed:width="57" ed:height="22.75"><path stroke="#ff7575" fill="none" d="M0,22.8L57,22.8" stroke-width="2" stroke-linejoin="round"/><text class="st35"><tspan style="white-space:pre" y="16.525" x="8" textLength="39">内排序</tspan></text></g><g id="191" transform="matrix(1,0,0,1,380.76,107.75)" ed:parentid="185" ed:width="57" ed:height="22.75"><path stroke="#ff7575" fill="none" d="M0,22.8L57,22.8" stroke-width="2" stroke-linejoin="round"/><text class="st35"><tspan style="white-space:pre" y="16.525" x="8" textLength="39">外排序</tspan></text></g><g id="192" transform="matrix(1,0,0,1,380.76,137)" ed:parentid="185" ed:width="83" ed:height="22.75"><path stroke="#ff7575" fill="none" d="M0,22.8L83,22.8" stroke-width="2" stroke-linejoin="round"/><text class="st35"><tspan style="white-space:pre" y="16.525" x="8" textLength="65">空间复杂度</tspan></text></g><g id="193" transform="matrix(1,0,0,1,380.76,166.25)" ed:parentid="185" ed:width="83" ed:height="22.75"><path stroke="#ff7575" fill="none" d="M0,22.8L83,22.8" stroke-width="2" stroke-linejoin="round"/><text class="st35"><tspan style="white-space:pre" y="16.525" x="8" textLength="65">空间复杂度</tspan></text></g><g id="194" transform="matrix(1,0,0,1,301.66,407.56)" ed:parentid="184" ed:width="70" ed:height="22.75"><path stroke="#ff7575" fill="none" d="M0,22.8L70,22.8" stroke-width="2" stroke-linejoin="round"/><text class="st35"><tspan style="white-space:pre" y="16.525" x="8" textLength="52">算法分类</tspan></text></g><g id="195" transform="matrix(1,0,0,1,406.76,327.13)" ed:parentid="194" ed:width="130.4375" ed:height="22.75"><path stroke="#ff7575" fill="none" d="M0,22.8L130.4,22.8" stroke-width="2" stroke-linejoin="round"/><text class="st35"><tspan style="white-space:pre" y="16.525" x="8" textLength="112">内部排序(使用内存)</tspan></text></g><g id="196" transform="matrix(1,0,0,1,572.3,210.13)" ed:parentid="195" ed:width="44" ed:height="22.75"><path stroke="#ff7575" fill="none" d="M0,22.8L44,22.8" stroke-width="2" stroke-linejoin="round"/><text class="st35"><tspan style="white-space:pre" y="16.525" x="8" textLength="26">插入</tspan></text></g><g id="197" transform="matrix(1,0,0,1,572.3,268.63)" ed:parentid="195" ed:width="44" ed:height="22.75"><path stroke="#ff7575" fill="none" d="M0,22.8L44,22.8" stroke-width="2" stroke-linejoin="round"/><text class="st35"><tspan style="white-space:pre" y="16.525" x="8" textLength="26">选择</tspan></text></g><g id="198" transform="matrix(1,0,0,1,572.3,327.13)" ed:parentid="195" ed:width="44" ed:height="22.75"><path stroke="#ff7575" fill="none" d="M0,22.8L44,22.8" stroke-width="2" stroke-linejoin="round"/><text class="st35"><tspan style="white-space:pre" y="16.525" x="8" textLength="26">交换</tspan></text></g><g id="199" transform="matrix(1,0,0,1,572.3,371)" ed:parentid="195" ed:width="44" ed:height="22.75"><path stroke="#ff7575" fill="none" d="M0,22.8L44,22.8" stroke-width="2" stroke-linejoin="round"/><text class="st35"><tspan style="white-space:pre" y="16.525" x="8" textLength="26">归并</tspan></text></g><g id="200" transform="matrix(1,0,0,1,572.3,400.25)" ed:parentid="195" ed:width="44" ed:height="22.75"><path stroke="#ff7575" fill="none" d="M0,22.8L44,22.8" stroke-width="2" stroke-linejoin="round"/><text class="st35"><tspan style="white-space:pre" y="16.525" x="8" textLength="26">基数</tspan></text></g><g id="201" transform="matrix(1,0,0,1,406.76,488)" ed:parentid="194" ed:width="70" ed:height="22.75"><path stroke="#ff7575" fill="none" d="M0,22.8L70,22.8" stroke-width="2" stroke-linejoin="round"/><text class="st35"><tspan style="white-space:pre" y="16.525" x="8" textLength="52">外部排序</tspan></text></g><g id="202" transform="matrix(1,0,0,1,651.4,312.5)" ed:parentid="198" ed:width="44" ed:height="22.75"><path stroke="#ff7575" fill="none" d="M0,22.8L44,22.8" stroke-width="2" stroke-linejoin="round"/><text class="st35"><tspan style="white-space:pre" y="16.525" x="8" textLength="26">冒泡</tspan></text></g><g id="203" transform="matrix(1,0,0,1,651.4,254)" ed:parentid="197" ed:width="44" ed:height="22.75"><path stroke="#ff7575" fill="none" d="M0,22.8L44,22.8" stroke-width="2" stroke-linejoin="round"/><text class="st35"><tspan style="white-space:pre" y="16.525" x="8" textLength="26">选择</tspan></text></g><g id="204" transform="matrix(1,0,0,1,651.4,195.5)" ed:parentid="196" ed:width="44" ed:height="22.75"><path stroke="#ff7575" fill="none" d="M0,22.8L44,22.8" stroke-width="2" stroke-linejoin="round"/><text class="st35"><tspan style="white-space:pre" y="16.525" x="8" textLength="26">插入</tspan></text></g><g id="205" transform="matrix(1,0,0,1,651.4,224.75)" ed:parentid="196" ed:width="44" ed:height="22.75"><path stroke="#ff7575" fill="none" d="M0,22.8L44,22.8" stroke-width="2" stroke-linejoin="round"/><text class="st35"><tspan style="white-space:pre" y="16.525" x="8" textLength="26">希尔</tspan></text></g><g id="206" transform="matrix(1,0,0,1,651.4,341.75)" ed:parentid="198" ed:width="44" ed:height="22.75"><path stroke="#ff7575" fill="none" d="M0,22.8L44,22.8" stroke-width="2" stroke-linejoin="round"/><text class="st35"><tspan style="white-space:pre" y="16.525" x="8" textLength="26">快速</tspan></text></g><g id="207" transform="matrix(1,0,0,1,651.4,283.25)" ed:parentid="197" ed:width="31" ed:height="22.75"><path stroke="#ff7575" fill="none" d="M0,22.8L31,22.8" stroke-width="2" stroke-linejoin="round"/><text class="st35"><tspan style="white-space:pre" y="16.525" x="8" textLength="13">堆</tspan></text></g><g id="208" transform="matrix(1,0,0,1,651.4,429.5)" ed:parentid="210" ed:width="44" ed:height="22.75"><path stroke="#ff7575" fill="none" d="M0,22.8L44,22.8" stroke-width="2" stroke-linejoin="round"/><text class="st35"><tspan style="white-space:pre" y="16.525" x="8" textLength="26">计数</tspan></text></g><g id="209" transform="matrix(1,0,0,1,651.4,458.75)" ed:parentid="210" ed:width="31" ed:height="22.75"><path stroke="#ff7575" fill="none" d="M0,22.8L31,22.8" stroke-width="2" stroke-linejoin="round"/><text class="st35"><tspan style="white-space:pre" y="16.525" x="8" textLength="13">桶</tspan></text></g><g id="210" transform="matrix(1,0,0,1,572.3,444.13)" ed:parentid="195" ed:width="44" ed:height="22.75"><path stroke="#ff7575" fill="none" d="M0,22.8L44,22.8" stroke-width="2" stroke-linejoin="round"/><text class="st35"><tspan style="white-space:pre" y="16.525" x="8" textLength="26">其他</tspan></text></g><g id="211" transform="matrix(1,0,0,1,192.56,951.38)" ed:parentid="183" ed:width="112" ed:height="37.75"><path stroke="#5fb7f1" fill="none" d="M0,37.8L112,37.8" stroke-width="2" stroke-linejoin="round"/><text class="st34"><tspan style="white-space:pre" y="27.15" x="17" textLength="76">算法分类</tspan></text></g><g id="212" transform="matrix(1,0,0,1,339.66,573)" ed:parentid="211" ed:width="70" ed:height="22.75"><path stroke="#5fb7f1" fill="none" d="M0,22.8L70,22.8" stroke-width="2" stroke-linejoin="round"/><text class="st35"><tspan style="white-space:pre" y="16.525" x="8" textLength="52">二分查找</tspan></text></g><g id="213" transform="matrix(1,0,0,1,444.76,543.75)" ed:parentid="212" ed:width="44" ed:height="22.75"><path stroke="#5fb7f1" fill="none" d="M0,22.8L44,22.8" stroke-width="2" stroke-linejoin="round"/><text class="st35"><tspan style="white-space:pre" y="16.525" x="8" textLength="26">递归</tspan></text></g><g id="214" transform="matrix(1,0,0,1,444.76,573)" ed:parentid="212" ed:width="57" ed:height="22.75"><path stroke="#5fb7f1" fill="none" d="M0,22.8L57,22.8" stroke-width="2" stroke-linejoin="round"/><text class="st35"><tspan style="white-space:pre" y="16.525" x="8" textLength="39">非递归</tspan></text></g><g id="215" transform="matrix(1,0,0,1,339.66,631.5)" ed:parentid="211" ed:width="44" ed:height="22.75"><path stroke="#5fb7f1" fill="none" d="M0,22.8L44,22.8" stroke-width="2" stroke-linejoin="round"/><text class="st35"><tspan style="white-space:pre" y="16.525" x="8" textLength="26">分治</tspan></text></g><g id="216" transform="matrix(1,0,0,1,339.66,777.75)" ed:parentid="211" ed:width="70" ed:height="22.75"><path stroke="#5fb7f1" fill="none" d="M0,22.8L70,22.8" stroke-width="2" stroke-linejoin="round"/><text class="st35"><tspan style="white-space:pre" y="16.525" x="8" textLength="52">动态规划</tspan></text></g><g id="217" transform="matrix(1,0,0,1,339.66,924)" ed:parentid="211" ed:width="45.890625" ed:height="19.75"><path stroke="#5fb7f1" fill="none" d="M0,19.8L45.9,19.8" stroke-width="2" stroke-linejoin="round"/><text class="st35"><tspan style="white-space:pre" y="13.525" x="8" textLength="28">kmp</tspan></text></g><g id="218" transform="matrix(1,0,0,1,339.66,950.25)" ed:parentid="211" ed:width="44" ed:height="22.75"><path stroke="#5fb7f1" fill="none" d="M0,22.8L44,22.8" stroke-width="2" stroke-linejoin="round"/><text class="st35"><tspan style="white-space:pre" y="16.525" x="8" textLength="26">贪心</tspan></text></g><g id="219" transform="matrix(1,0,0,1,339.66,979.5)" ed:parentid="211" ed:width="57" ed:height="22.75"><path stroke="#5fb7f1" fill="none" d="M0,22.8L57,22.8" stroke-width="2" stroke-linejoin="round"/><text class="st35"><tspan style="white-space:pre" y="16.525" x="8" textLength="39">普里姆</tspan></text></g><g id="220" transform="matrix(1,0,0,1,339.66,1008.75)" ed:parentid="211" ed:width="83" ed:height="22.75"><path stroke="#5fb7f1" fill="none" d="M0,22.8L83,22.8" stroke-width="2" stroke-linejoin="round"/><text class="st35"><tspan style="white-space:pre" y="16.525" x="8" textLength="65">克鲁斯卡尔</tspan></text></g><g id="221" transform="matrix(1,0,0,1,418.76,950.25)" ed:parentid="218" ed:width="106.234375" ed:height="22.75"><path stroke="#5fb7f1" fill="none" d="M0,22.8L106.2,22.8" stroke-width="2" stroke-linejoin="round"/><text class="st35"><tspan style="white-space:pre" y="16.525" x="8" textLength="88">45. 跳跃游戏 II</tspan></text></g><g id="222" transform="matrix(1,0,0,1,444.76,660.75)" ed:parentid="216" ed:width="120.65625" ed:height="22.75"><path stroke="#5fb7f1" fill="none" d="M0,22.8L120.7,22.8" stroke-width="2" stroke-linejoin="round"/><text class="st35"><tspan style="white-space:pre" y="16.525" x="8" textLength="103">53. 最大子数组和</tspan></text></g><g id="223" transform="matrix(1,0,0,1,444.76,690)" ed:parentid="216" ed:width="94.65625" ed:height="22.75"><path stroke="#5fb7f1" fill="none" d="M0,22.8L94.7,22.8" stroke-width="2" stroke-linejoin="round"/><text class="st35"><tspan style="white-space:pre" y="16.525" x="8" textLength="77">62. 不同路径</tspan></text></g><g id="224" transform="matrix(1,0,0,1,444.76,719.25)" ed:parentid="216" ed:width="106.234375" ed:height="22.75"><path stroke="#5fb7f1" fill="none" d="M0,22.8L106.2,22.8" stroke-width="2" stroke-linejoin="round"/><text class="st35"><tspan style="white-space:pre" y="16.525" x="8" textLength="88">63. 不同路径 II</tspan></text></g><g id="225" transform="matrix(1,0,0,1,444.76,748.5)" ed:parentid="216" ed:width="107.65625" ed:height="22.75"><path stroke="#5fb7f1" fill="none" d="M0,22.8L107.7,22.8" stroke-width="2" stroke-linejoin="round"/><text class="st35"><tspan style="white-space:pre" y="16.525" x="8" textLength="90">64. 最小路径和</tspan></text></g><g id="226" transform="matrix(1,0,0,1,339.66,1140.38)" ed:parentid="211" ed:width="44" ed:height="22.75"><path stroke="#5fb7f1" fill="none" d="M0,22.8L44,22.8" stroke-width="2" stroke-linejoin="round"/><text class="st35"><tspan style="white-space:pre" y="16.525" x="8" textLength="26">回溯</tspan></text></g><g id="227" transform="matrix(1,0,0,1,418.76,1184.25)" ed:parentid="226" ed:width="94.65625" ed:height="22.75"><path stroke="#5fb7f1" fill="none" d="M0,22.8L94.7,22.8" stroke-width="2" stroke-linejoin="round"/><text class="st35"><tspan style="white-space:pre" y="16.525" x="8" textLength="77">79. 单词搜索</tspan></text></g><g id="228" transform="matrix(1,0,0,1,444.76,602.25)" ed:parentid="212" ed:width="158.234375" ed:height="22.75"><path stroke="#5fb7f1" fill="none" d="M0,22.8L158.2,22.8" stroke-width="2" stroke-linejoin="round"/><text class="st35"><tspan style="white-space:pre" y="16.525" x="8" textLength="140">81. 搜索旋转排序数组 II</tspan></text></g><g id="229" transform="matrix(1,0,0,1,444.76,777.75)" ed:parentid="216" ed:width="94.65625" ed:height="22.75"><path stroke="#5fb7f1" fill="none" d="M0,22.8L94.7,22.8" stroke-width="2" stroke-linejoin="round"/><text class="st35"><tspan style="white-space:pre" y="16.525" x="8" textLength="77">91. 解码方法</tspan></text></g><g id="230" transform="matrix(1,0,0,1,339.66,1228.13)" ed:parentid="211" ed:width="44" ed:height="22.75"><path stroke="#5fb7f1" fill="none" d="M0,22.8L44,22.8" stroke-width="2" stroke-linejoin="round"/><text class="st35"><tspan style="white-space:pre" y="16.525" x="8" textLength="26">递归</tspan></text></g><g id="231" transform="matrix(1,0,0,1,418.76,1213.5)" ed:parentid="230" ed:width="115.875" ed:height="22.75"><path stroke="#5fb7f1" fill="none" d="M0,22.8L115.9,22.8" stroke-width="2" stroke-linejoin="round"/><text class="st35"><tspan style="white-space:pre" y="16.525" x="8" textLength="98">101. 对称二叉树</tspan></text></g><g id="232" transform="matrix(1,0,0,1,339.66,1052.63)" ed:parentid="211" ed:width="96" ed:height="22.75"><path stroke="#5fb7f1" fill="none" d="M0,22.8L96,22.8" stroke-width="2" stroke-linejoin="round"/><text class="st35"><tspan style="white-space:pre" y="16.525" x="8" textLength="78">深度优先搜索</tspan></text></g><g id="233" transform="matrix(1,0,0,1,470.76,1038)" ed:parentid="232" ed:width="154.875" ed:height="22.75"><path stroke="#5fb7f1" fill="none" d="M0,22.8L154.9,22.8" stroke-width="2" stroke-linejoin="round"/><text class="st35"><tspan style="white-space:pre" y="16.525" x="8" textLength="137">111. 二叉树的最小深度</tspan></text></g><g id="234" transform="matrix(1,0,0,1,418.76,1242.75)" ed:parentid="230" ed:width="102.875" ed:height="22.75"><path stroke="#5fb7f1" fill="none" d="M0,22.8L102.9,22.8" stroke-width="2" stroke-linejoin="round"/><text class="st35"><tspan style="white-space:pre" y="16.525" x="8" textLength="85">112. 路径总和</tspan></text></g><g id="235" transform="matrix(1,0,0,1,339.66,1272)" ed:parentid="211" ed:width="96" ed:height="22.75"><path stroke="#5fb7f1" fill="none" d="M0,22.8L96,22.8" stroke-width="2" stroke-linejoin="round"/><text class="st35"><tspan style="white-space:pre" y="16.525" x="8" textLength="78">广度优先搜索</tspan></text></g><g id="236" transform="matrix(1,0,0,1,470.76,1272)" ed:parentid="235" ed:width="102.875" ed:height="22.75"><path stroke="#5fb7f1" fill="none" d="M0,22.8L102.9,22.8" stroke-width="2" stroke-linejoin="round"/><text class="st35"><tspan style="white-space:pre" y="16.525" x="8" textLength="85">112. 路径总和</tspan></text></g><g id="237" transform="matrix(1,0,0,1,444.76,807)" ed:parentid="216" ed:width="154.875" ed:height="22.75"><path stroke="#5fb7f1" fill="none" d="M0,22.8L154.9,22.8" stroke-width="2" stroke-linejoin="round"/><text class="st35"><tspan style="white-space:pre" y="16.525" x="8" textLength="137">120. 三角形最小路径和</tspan></text></g><g id="238" transform="matrix(1,0,0,1,444.76,836.25)" ed:parentid="216" ed:width="179.453125" ed:height="22.75"><path stroke="#5fb7f1" fill="none" d="M0,22.8L179.5,22.8" stroke-width="2" stroke-linejoin="round"/><text class="st35"><tspan style="white-space:pre" y="16.525" x="8" textLength="161">122. 买卖股票的最佳时机 II</tspan></text></g><g id="239" transform="matrix(1,0,0,1,470.76,1067.25)" ed:parentid="232" ed:width="206.875" ed:height="22.75"><path stroke="#5fb7f1" fill="none" d="M0,22.8L206.9,22.8" stroke-width="2" stroke-linejoin="round"/><text class="st35"><tspan style="white-space:pre" y="16.525" x="8" textLength="189">129. 求根节点到叶节点数字之和</tspan></text></g><g id="240" transform="matrix(1,0,0,1,339.66,1301.25)" ed:parentid="211" ed:width="57" ed:height="22.75"><path stroke="#5fb7f1" fill="none" d="M0,22.8L57,22.8" stroke-width="2" stroke-linejoin="round"/><text class="st35"><tspan style="white-space:pre" y="16.525" x="8" textLength="39">位运算</tspan></text></g><g id="241" transform="matrix(1,0,0,1,431.76,1301.25)" ed:parentid="240" ed:width="154.875" ed:height="22.75"><path stroke="#5fb7f1" fill="none" d="M0,22.8L154.9,22.8" stroke-width="2" stroke-linejoin="round"/><text class="st35"><tspan style="white-space:pre" y="16.525" x="8" textLength="137">136. 只出现一次的数字</tspan></text></g><g id="242" transform="matrix(1,0,0,1,444.76,865.5)" ed:parentid="216" ed:width="141.875" ed:height="22.75"><path stroke="#5fb7f1" fill="none" d="M0,22.8L141.9,22.8" stroke-width="2" stroke-linejoin="round"/><text class="st35"><tspan style="white-space:pre" y="16.525" x="8" textLength="124">152. 乘积最大子数组</tspan></text></g><g id="243" transform="matrix(1,0,0,1,444.76,894.75)" ed:parentid="216" ed:width="102.875" ed:height="22.75"><path stroke="#5fb7f1" fill="none" d="M0,22.8L102.9,22.8" stroke-width="2" stroke-linejoin="round"/><text class="st35"><tspan style="white-space:pre" y="16.525" x="8" textLength="85">198. 打家劫舍</tspan></text></g><g id="244" transform="matrix(1,0,0,1,339.66,1330.5)" ed:parentid="211" ed:width="70" ed:height="22.75"><path stroke="#5fb7f1" fill="none" d="M0,22.8L70,22.8" stroke-width="2" stroke-linejoin="round"/><text class="st35"><tspan style="white-space:pre" y="16.525" x="8" textLength="52">滑动窗口</tspan></text></g><g id="245" transform="matrix(1,0,0,1,444.76,1330.5)" ed:parentid="244" ed:width="154.875" ed:height="22.75"><path stroke="#5fb7f1" fill="none" d="M0,22.8L154.9,22.8" stroke-width="2" stroke-linejoin="round"/><text class="st35"><tspan style="white-space:pre" y="16.525" x="8" textLength="137">209. 长度最小的子数组</tspan></text></g><g id="246" transform="matrix(1,0,0,1,418.76,1096.5)" ed:parentid="226" ed:width="159.65625" ed:height="22.75"><path stroke="#5fb7f1" fill="none" d="M0,22.8L159.7,22.8" stroke-width="2" stroke-linejoin="round"/><text class="st35"><tspan style="white-space:pre" y="16.525" x="8" textLength="142">17. 电话号码的字母组合</tspan></text></g><g id="247" transform="matrix(1,0,0,1,418.76,1125.75)" ed:parentid="226" ed:width="94.65625" ed:height="22.75"><path stroke="#5fb7f1" fill="none" d="M0,22.8L94.7,22.8" stroke-width="2" stroke-linejoin="round"/><text class="st35"><tspan style="white-space:pre" y="16.525" x="8" textLength="77">22. 括号生成</tspan></text></g><g id="248" transform="matrix(1,0,0,1,418.76,1155)" ed:parentid="226" ed:width="81.65625" ed:height="22.75"><path stroke="#5fb7f1" fill="none" d="M0,22.8L81.7,22.8" stroke-width="2" stroke-linejoin="round"/><text class="st35"><tspan style="white-space:pre" y="16.525" x="8" textLength="64">46. 全排列</tspan></text></g><g id="249" transform="matrix(1,0,0,1,339.66,1359.75)" ed:parentid="211" ed:width="57" ed:height="22.75"><path stroke="#5fb7f1" fill="none" d="M0,22.8L57,22.8" stroke-width="2" stroke-linejoin="round"/><text class="st35"><tspan style="white-space:pre" y="16.525" x="8" textLength="39">双指针</tspan></text></g><g id="250" transform="matrix(1,0,0,1,431.76,1359.75)" ed:parentid="249" ed:width="197.234375" ed:height="22.75"><path stroke="#5fb7f1" fill="none" d="M0,22.8L197.2,22.8" stroke-width="2" stroke-linejoin="round"/><text class="st35"><tspan style="white-space:pre" y="16.525" x="8" textLength="179">80. 删除有序数组中的重复项 II</tspan></text></g></svg>