<svg id="page300000101" xmlns:xlink="http://www.w3.org/1999/xlink" ed:name="boot" height="220" xmlns="http://www.w3.org/2000/svg" viewBox="0 0 667 220" xmlns:ev="http://www.w3.org/2001/xml-events" xmlns:ed="https://www.edrawsoft.cn/xml/2017/SVGExtensions/" width="667" ed:vSpacing="30" ed:hSpacing="30"><style type="text/css"><![CDATA[
g[ed\:togtopicid],g[ed\:hyperlink],g[ed\:comment],g[ed\:note] {cursor:pointer;}
g[id] {-moz-user-select: none;-ms-user-select: none;user-select: none;}
svg text::selection,svg tspan::selection{background-color: #4285f4;color: #ffffff;fill: #ffffff;}
.st14 {fill:#454545;font-family:微软雅黑;font-size:14.25pt;font-weight:bold}
.st13 {fill:#454545;font-family:微软雅黑;font-size:18pt;font-weight:bold}
.st15 {fill:#454545;font-family:微软雅黑;font-size:9.75pt}
]]></style><defs/><rect height="220" fill="#ffffff" y="0" x="0" width="667"/><path id="109" transform="matrix(1,0,0,1,203.9,92.13)" fill="#ff7575" stroke="#ff7575" ed:parentid="115" d="M-8.8,2.6C-10.3,3.6,-10.7,5.2,-9.9,6.4C-9.2,7.5,-7.5,7.8,-6.1,6.8C-4.1,5.5,-2.2,4.1,-0.3,2.8C1.6,1.5,3.5,0.1,5.4,-1.3C7.3,-2.6,9.2,-4,11.1,-5.3C13,-6.7,14.9,-8,16.8,-9.3C18.8,-10.7,20.7,-12,22.6,-13.3C24.5,-14.5,26.5,-15.8,28.5,-17C30.4,-18.2,32.4,-19.4,34.4,-20.5C36.4,-21.6,38.5,-22.7,40.6,-23.7C42.6,-24.8,44.7,-25.7,46.8,-26.6C49,-27.5,51.1,-28.3,53.3,-29.1C55.5,-29.8,57.7,-30.5,60,-31C62.2,-31.6,64.5,-32.1,66.7,-32.5C69,-32.9,71.2,-33.2,73.6,-33.4C76,-33.7,78.5,-33.8,81,-33.9C81.3,-33.9,81.6,-34.1,81.6,-34.4C81.6,-34.6,81.3,-34.9,81,-34.9C78.4,-34.9,75.9,-34.9,73.5,-34.7C71.1,-34.6,68.8,-34.4,66.5,-34.1C64.2,-33.8,61.8,-33.4,59.5,-32.9C57.2,-32.4,54.9,-31.8,52.7,-31.1C50.4,-30.5,48.2,-29.7,46,-28.9C43.7,-28.1,41.6,-27.2,39.4,-26.2C37.2,-25.3,35.1,-24.2,33,-23.2C30.9,-22.1,28.8,-21,26.8,-19.8C24.7,-18.7,22.7,-17.5,20.7,-16.3C18.7,-15.1,16.7,-13.8,14.7,-12.6C12.7,-11.3,10.8,-10,8.8,-8.8C6.8,-7.5,4.9,-6.2,2.9,-4.9C1,-3.6,-1,-2.4,-2.9,-1.1C-4.9,0.2,-6.8,1.4,-8.8,2.6z" stroke-linejoin="round" ed:tosuperid="116" stroke-linecap="round"/><path id="110" transform="matrix(1,0,0,1,203.9,127.5)" fill="#5fb7f1" stroke="#5fb7f1" ed:parentid="115" d="M18,-2.2C16.2,-2.3,15,-1.2,14.9,0.2C14.9,1.6,16.1,2.8,17.9,2.8C20.2,2.7,22.6,2.7,24.9,2.7C27.2,2.6,29.6,2.6,31.9,2.6C34.2,2.5,36.6,2.5,38.9,2.4C41.2,2.4,43.6,2.4,45.9,2.3C48.2,2.3,50.6,2.2,52.9,2.2C55.3,2.2,57.6,2.1,59.9,2.1C62.3,2,64.6,2,66.9,1.9C69.3,1.8,71.6,1.8,73.9,1.7C76.3,1.6,78.6,1.6,81,1.5C81.3,1.5,81.6,1.3,81.6,1C81.6,0.7,81.3,0.5,81,0.5C78.6,0.4,76.3,0.3,73.9,0.3C71.6,0.2,69.3,0.1,66.9,0C64.6,-0.1,62.3,-0.2,59.9,-0.3C57.6,-0.4,55.3,-0.5,53,-0.6C50.6,-0.7,48.3,-0.8,46,-0.9C43.6,-1,41.3,-1.1,39,-1.2C36.6,-1.3,34.3,-1.4,32,-1.6C29.6,-1.7,27.3,-1.8,25,-1.9C22.6,-2,20.3,-2.1,18,-2.2z" stroke-linejoin="round" ed:tosuperid="117" stroke-linecap="round"/><path id="111" transform="matrix(1,0,0,1,414.42,128.5)" stroke="#5fb7f1" fill="none" ed:parentid="117" d="M-17.5,0C-3.5,0,7,0,17.5,0" stroke-width="2" stroke-linejoin="round" ed:tosuperid="118" stroke-linecap="round"/><path id="112" transform="matrix(1,0,0,1,402.04,195.25)" stroke="#ffcd55" fill="none" ed:parentid="121" d="M-17.5,0C-3.5,0,7,0,17.5,0" stroke-width="2" stroke-linejoin="round" ed:tosuperid="119" stroke-linecap="round"/><path id="113" transform="matrix(1,0,0,1,414.42,57.75)" stroke="#ff7575" fill="none" ed:parentid="116" d="M-17.5,0C-3.5,0,7,0,17.5,0" stroke-width="2" stroke-linejoin="round" ed:tosuperid="120" stroke-linecap="round"/><path id="114" transform="matrix(1,0,0,1,203.9,160.88)" fill="#ffcd55" stroke="#ffcd55" ed:parentid="115" d="M-6.1,-6.8C-7.5,-7.8,-9.2,-7.5,-9.9,-6.4C-10.7,-5.2,-10.3,-3.6,-8.8,-2.6C-6.8,-1.4,-4.9,-0.2,-2.9,1.1C-1,2.4,1,3.6,2.9,4.9C4.9,6.2,6.8,7.5,8.8,8.8C10.8,10,12.7,11.3,14.7,12.6C16.7,13.8,18.7,15.1,20.7,16.3C22.7,17.5,24.7,18.7,26.8,19.8C28.8,21,30.9,22.1,33,23.2C35.1,24.2,37.2,25.3,39.4,26.2C41.6,27.2,43.7,28.1,46,28.9C48.2,29.7,50.4,30.5,52.7,31.1C54.9,31.8,57.2,32.4,59.5,32.9C61.8,33.4,64.2,33.8,66.5,34.1C68.8,34.4,71.1,34.6,73.5,34.7C75.9,34.9,78.4,34.9,81,34.9C81.3,34.9,81.6,34.6,81.6,34.4C81.6,34.1,81.3,33.9,81,33.9C78.5,33.8,76,33.7,73.6,33.4C71.2,33.2,69,32.9,66.7,32.5C64.5,32.1,62.2,31.6,60,31C57.7,30.5,55.5,29.8,53.3,29.1C51.1,28.3,49,27.5,46.8,26.6C44.7,25.7,42.6,24.8,40.6,23.7C38.5,22.7,36.4,21.6,34.4,20.5C32.4,19.4,30.4,18.2,28.5,17C26.5,15.8,24.5,14.5,22.6,13.3C20.7,12,18.8,10.7,16.8,9.3C14.9,8,13,6.7,11.1,5.3C9.2,4,7.3,2.6,5.4,1.3C3.5,-0.1,1.6,-1.5,-0.3,-2.8C-2.2,-4.1,-4.1,-5.5,-6.1,-6.8z" stroke-linejoin="round" ed:tosuperid="121" stroke-linecap="round"/><g id="115" transform="matrix(1,0,0,1,24,96.5)" ed:layout="rightmap" ed:width="197.86625" ed:topictype="mainidea" ed:height="60"><path fill="#ffffff" stroke="#ffffff" d="M30,0L167.9,0C184.4,0,197.9,13.4,197.9,30C197.9,46.6,184.4,60,167.9,60L30,60C13.4,60,0,46.6,0,30C0,13.4,13.4,0,30,0z" stroke-width="4" stroke-linejoin="round"/><text class="st13"><tspan style="white-space:pre" y="38.5" x="27" textLength="144">spring boot</tspan></text></g><g id="116" transform="matrix(1,0,0,1,284.87,20)" ed:parentid="115" ed:width="112" ed:height="37.75"><path stroke="#ff7575" fill="none" d="M0,37.8L112,37.8" stroke-width="2" stroke-linejoin="round"/><text class="st14"><tspan style="white-space:pre" y="27.15" x="17" textLength="76">自动加载</tspan></text></g><g id="117" transform="matrix(1,0,0,1,284.87,90.75)" ed:parentid="115" ed:width="112" ed:height="37.75"><path stroke="#5fb7f1" fill="none" d="M0,37.8L112,37.8" stroke-width="2" stroke-linejoin="round"/><text class="st14"><tspan style="white-space:pre" y="27.15" x="17" textLength="76">配置文件</tspan></text></g><g id="118" transform="matrix(1,0,0,1,431.97,108.75)" ed:parentid="117" ed:width="202.5" ed:height="19.75"><path stroke="#5fb7f1" fill="none" d="M0,19.8L202.5,19.8" stroke-width="2" stroke-linejoin="round"/><text class="st15"><tspan style="white-space:pre" y="13.525" x="8" textLength="185">ConfigFileApplicationListener</tspan></text></g><g id="119" transform="matrix(1,0,0,1,419.59,175.5)" ed:parentid="121" ed:width="225.40625" ed:height="19.75"><path stroke="#ffcd55" fill="none" d="M0,19.8L225.4,19.8" stroke-width="2" stroke-linejoin="round"/><text class="st15"><tspan style="white-space:pre" y="13.525" x="8" textLength="207">ConfigurationClassPostProcessor</tspan></text></g><g id="120" transform="matrix(1,0,0,1,431.97,38)" ed:parentid="116" ed:width="157.75" ed:height="19.75"><path stroke="#ff7575" fill="none" d="M0,19.8L157.8,19.8" stroke-width="2" stroke-linejoin="round"/><text class="st15"><tspan style="white-space:pre" y="13.525" x="8" textLength="140">SpringFactoriesLoader</tspan></text></g><g id="121" transform="matrix(1,0,0,1,284.87,161.5)" ed:parentid="115" ed:width="99.625" ed:height="33.75"><path stroke="#ffcd55" fill="none" d="M0,33.8L99.6,33.8" stroke-width="2" stroke-linejoin="round"/><text class="st14"><tspan style="white-space:pre" y="23.15" x="17" textLength="64">@bean</tspan></text></g></svg>