<svg id="page300000109" xmlns:xlink="http://www.w3.org/1999/xlink" ed:name="develop" height="1434" xmlns="http://www.w3.org/2000/svg" viewBox="0 0 918 1434" xmlns:ev="http://www.w3.org/2001/xml-events" xmlns:ed="https://www.edrawsoft.cn/xml/2017/SVGExtensions/" width="918" ed:vSpacing="30" ed:hSpacing="30"><style type="text/css"><![CDATA[
g[ed\:togtopicid],g[ed\:hyperlink],g[ed\:comment],g[ed\:note] {cursor:pointer;}
g[id] {-moz-user-select: none;-ms-user-select: none;user-select: none;}
svg text::selection,svg tspan::selection{background-color: #4285f4;color: #ffffff;fill: #ffffff;}
.st36 {fill:#454545;font-family:微软雅黑;font-size:14.25pt;font-weight:bold}
.st38 {fill:#454545;font-family:微软雅黑;font-size:18pt;font-weight:bold}
.st37 {fill:#454545;font-family:微软雅黑;font-size:9.75pt}
]]></style><defs/><rect height="1434" fill="#ffffff" y="0" x="0" width="918"/><path id="117" transform="matrix(1,0,0,1,134.67,759.14)" fill="#ff7575" stroke="#ff7575" ed:parentid="215" d="M-35,178.9C-35.6,180.6,-34.9,182.1,-33.6,182.5C-32.3,183,-30.9,182.2,-30.3,180.5C-29.6,178.3,-28.8,176,-28.2,173.7C-27.5,171.4,-26.9,169.1,-26.4,166.9C-25.8,164.6,-25.3,162.3,-24.8,159.9C-24.3,157.6,-23.9,155.3,-23.5,153C-23.1,150.7,-22.7,148.4,-22.3,146.1C-21.9,143.7,-21.6,141.4,-21.2,139.1C-20.9,136.8,-20.6,134.5,-20.3,132.1C-20,129.8,-19.7,127.5,-19.5,125.1C-19.2,122.8,-19,120.5,-18.7,118.2C-18.5,115.8,-18.3,113.5,-18.1,111.2C-17.9,108.8,-17.7,106.5,-17.5,104.2C-17.3,101.8,-17.1,99.5,-16.9,97.2C-16.8,94.9,-16.6,92.5,-16.4,90.2C-16.3,87.9,-16.1,85.5,-16,83.2C-15.8,80.9,-15.7,78.5,-15.6,76.2C-15.4,73.9,-15.3,71.5,-15.2,69.2C-15,66.9,-14.9,64.5,-14.8,62.2C-14.7,59.9,-14.6,57.5,-14.4,55.2C-14.3,52.9,-14.2,50.5,-14.1,48.2C-14,45.9,-13.9,43.5,-13.8,41.2C-13.7,38.9,-13.6,36.5,-13.5,34.2C-13.4,31.9,-13.3,29.6,-13.2,27.2C-13.1,24.9,-13,22.6,-12.9,20.2C-12.8,17.9,-12.7,15.6,-12.6,13.2C-12.5,10.9,-12.4,8.6,-12.3,6.2C-12.2,3.9,-12.1,1.6,-12,-0.7C-11.9,-3.1,-11.8,-5.4,-11.7,-7.7C-11.6,-10.1,-11.4,-12.4,-11.3,-14.7C-11.2,-17.1,-11.1,-19.4,-11,-21.7C-10.9,-24,-10.7,-26.4,-10.6,-28.7C-10.5,-31,-10.3,-33.4,-10.2,-35.7C-10.1,-38,-9.9,-40.3,-9.8,-42.7C-9.6,-45,-9.5,-47.3,-9.3,-49.6C-9.2,-52,-9,-54.3,-8.8,-56.6C-8.7,-58.9,-8.5,-61.3,-8.3,-63.6C-8.1,-65.9,-7.9,-68.2,-7.7,-70.6C-7.5,-72.9,-7.3,-75.2,-7.1,-77.5C-6.9,-79.8,-6.7,-82.2,-6.4,-84.5C-6.2,-86.8,-5.9,-89.1,-5.7,-91.4C-5.4,-93.7,-5.1,-96,-4.9,-98.4C-4.6,-100.7,-4.3,-103,-4,-105.3C-3.6,-107.6,-3.3,-109.9,-3,-112.2C-2.6,-114.5,-2.3,-116.8,-1.9,-119.1C-1.5,-121.4,-1.1,-123.7,-0.7,-126C-0.3,-128.3,0.2,-130.6,0.6,-132.8C1.1,-135.1,1.6,-137.4,2.1,-139.7C2.6,-141.9,3.1,-144.2,3.7,-146.4C4.3,-148.7,4.9,-150.9,5.5,-153.2C6.1,-155.4,6.8,-157.6,7.5,-159.9C8.2,-162.1,9,-164.3,9.8,-166.4C10.6,-168.6,11.4,-170.8,12.3,-172.9C13.2,-175.1,14.2,-177.2,15.2,-179.2C16.2,-181.3,17.3,-183.4,18.5,-185.4C19.7,-187.4,20.9,-189.3,22.2,-191.2C23.6,-193.1,25,-194.9,26.5,-196.6C28.1,-198.3,29.7,-200,31.5,-201.5C33.2,-203,35.1,-204.3,37,-205.5C39,-206.7,41.1,-207.8,43.2,-208.6C45.3,-209.4,47.3,-210.1,49.8,-210.5C52.3,-211,55.3,-211.2,56.7,-211.3C58.1,-211.4,58,-211.4,57.9,-211.3C57.6,-211.2,58.5,-211.6,58.5,-211.8C58.5,-212.1,57.6,-212.2,57.9,-212.3C58,-212.4,58.1,-212.4,56.6,-212.3C55.2,-212.2,52.2,-212,49.6,-211.6C47,-211.2,44.9,-210.5,42.8,-209.7C40.6,-208.8,38.5,-207.8,36.4,-206.6C34.4,-205.3,32.4,-204,30.6,-202.4C28.8,-200.9,27.1,-199.3,25.5,-197.5C24,-195.8,22.5,-193.9,21.1,-192C19.7,-190.1,18.4,-188.1,17.2,-186.1C16,-184.1,14.9,-182,13.8,-179.9C12.8,-177.8,11.8,-175.7,10.8,-173.6C9.9,-171.4,9,-169.2,8.2,-167C7.4,-164.8,6.6,-162.6,5.8,-160.4C5.1,-158.2,4.4,-155.9,3.8,-153.7C3.1,-151.4,2.5,-149.2,1.9,-146.9C1.3,-144.6,0.7,-142.4,0.2,-140.1C-0.4,-137.8,-0.9,-135.5,-1.4,-133.2C-1.8,-131,-2.3,-128.7,-2.7,-126.4C-3.2,-124.1,-3.6,-121.8,-4,-119.5C-4.4,-117.2,-4.8,-114.8,-5.2,-112.5C-5.5,-110.2,-5.9,-107.9,-6.2,-105.6C-6.5,-103.3,-6.9,-101,-7.2,-98.7C-7.5,-96.3,-7.8,-94,-8.1,-91.7C-8.3,-89.4,-8.6,-87.1,-8.9,-84.7C-9.1,-82.4,-9.4,-80.1,-9.6,-77.8C-9.9,-75.4,-10.1,-73.1,-10.3,-70.8C-10.5,-68.5,-10.8,-66.1,-11,-63.8C-11.2,-61.5,-11.4,-59.2,-11.6,-56.8C-11.8,-54.5,-11.9,-52.2,-12.1,-49.8C-12.3,-47.5,-12.5,-45.2,-12.7,-42.9C-12.8,-40.5,-13,-38.2,-13.1,-35.9C-13.3,-33.5,-13.5,-31.2,-13.6,-28.9C-13.8,-26.5,-13.9,-24.2,-14,-21.9C-14.2,-19.6,-14.3,-17.2,-14.5,-14.9C-14.6,-12.6,-14.7,-10.2,-14.9,-7.9C-15,-5.6,-15.1,-3.2,-15.3,-0.9C-15.4,1.4,-15.5,3.8,-15.6,6.1C-15.8,8.4,-15.9,10.7,-16,13.1C-16.1,15.4,-16.2,17.7,-16.4,20.1C-16.5,22.4,-16.6,24.7,-16.7,27.1C-16.9,29.4,-17,31.7,-17.1,34C-17.2,36.4,-17.3,38.7,-17.5,41C-17.6,43.4,-17.7,45.7,-17.9,48C-18,50.3,-18.1,52.7,-18.2,55C-18.4,57.3,-18.5,59.7,-18.7,62C-18.8,64.3,-18.9,66.6,-19.1,69C-19.2,71.3,-19.4,73.6,-19.5,75.9C-19.7,78.3,-19.9,80.6,-20,82.9C-20.2,85.2,-20.4,87.6,-20.6,89.9C-20.7,92.2,-20.9,94.5,-21.1,96.9C-21.3,99.2,-21.5,101.5,-21.7,103.8C-21.9,106.1,-22.2,108.4,-22.4,110.8C-22.6,113.1,-22.9,115.4,-23.1,117.7C-23.4,120,-23.6,122.3,-23.9,124.6C-24.2,126.9,-24.5,129.2,-24.8,131.5C-25.1,133.8,-25.5,136.1,-25.8,138.4C-26.1,140.7,-26.5,143,-26.9,145.3C-27.3,147.6,-27.7,149.9,-28.1,152.1C-28.6,154.4,-29,156.7,-29.5,158.9C-30,161.2,-30.5,163.4,-31.1,165.7C-31.7,167.9,-32.3,170.1,-32.9,172.3C-33.6,174.5,-34.3,176.7,-35,178.9z" stroke-linejoin="round" ed:tosuperid="180" stroke-linecap="round"/><path id="118" transform="matrix(1,0,0,1,322.11,419.34)" stroke="#ff7575" fill="none" ed:parentid="180" d="M-17.5,128C7,128,-17.5,-128,17.5,-128" stroke-width="2" stroke-linejoin="round" ed:tosuperid="181" stroke-linecap="round"/><path id="119" transform="matrix(1,0,0,1,427.21,210.94)" stroke="#ff7575" fill="none" ed:parentid="181" d="M-17.5,80.4C7,80.4,-17.5,-80.4,17.5,-80.4" stroke-width="2" stroke-linejoin="round" ed:tosuperid="182" stroke-linecap="round"/><path id="120" transform="matrix(1,0,0,1,532.31,86.63)" stroke="#ff7575" fill="none" ed:parentid="182" d="M-17.5,43.9C5.2,43.9,-13.4,-43.9,17.5,-43.9" stroke-width="2" stroke-linejoin="round" ed:tosuperid="183" stroke-linecap="round"/><path id="121" transform="matrix(1,0,0,1,532.31,101.25)" stroke="#ff7575" fill="none" ed:parentid="182" d="M-17.5,29.3C2.9,29.3,-7.9,-29.3,17.5,-29.3" stroke-width="2" stroke-linejoin="round" ed:tosuperid="184" stroke-linecap="round"/><path id="122" transform="matrix(1,0,0,1,532.31,115.88)" stroke="#ff7575" fill="none" ed:parentid="182" d="M-17.5,14.6C-0.1,14.6,-0.9,-14.6,17.5,-14.6" stroke-width="2" stroke-linejoin="round" ed:tosuperid="185" stroke-linecap="round"/><path id="123" transform="matrix(1,0,0,1,532.31,130.5)" stroke="#ff7575" fill="none" ed:parentid="182" d="M-17.5,0C-3.5,0,7,0,17.5,0" stroke-width="2" stroke-linejoin="round" ed:tosuperid="186" stroke-linecap="round"/><path id="124" transform="matrix(1,0,0,1,532.31,145.13)" stroke="#ff7575" fill="none" ed:parentid="182" d="M-17.5,-14.6C-0.1,-14.6,-0.9,14.6,17.5,14.6" stroke-width="2" stroke-linejoin="round" ed:tosuperid="187" stroke-linecap="round"/><path id="125" transform="matrix(1,0,0,1,532.31,159.75)" stroke="#ff7575" fill="none" ed:parentid="182" d="M-17.5,-29.3C2.9,-29.3,-7.9,29.3,17.5,29.3" stroke-width="2" stroke-linejoin="round" ed:tosuperid="188" stroke-linecap="round"/><path id="126" transform="matrix(1,0,0,1,532.31,174.38)" stroke="#ff7575" fill="none" ed:parentid="182" d="M-17.5,-43.9C5.2,-43.9,-13.4,43.9,17.5,43.9" stroke-width="2" stroke-linejoin="round" ed:tosuperid="189" stroke-linecap="round"/><path id="127" transform="matrix(1,0,0,1,427.21,276.75)" stroke="#ff7575" fill="none" ed:parentid="181" d="M-17.5,14.6C-0.1,14.6,-0.9,-14.6,17.5,-14.6" stroke-width="2" stroke-linejoin="round" ed:tosuperid="190" stroke-linecap="round"/><path id="128" transform="matrix(1,0,0,1,532.31,254.81)" stroke="#ff7575" fill="none" ed:parentid="190" d="M-17.5,7.3C-1.8,7.3,3,-7.3,17.5,-7.3" stroke-width="2" stroke-linejoin="round" ed:tosuperid="191" stroke-linecap="round"/><path id="129" transform="matrix(1,0,0,1,532.31,269.44)" stroke="#ff7575" fill="none" ed:parentid="190" d="M-17.5,-7.3C-1.8,-7.3,3,7.3,17.5,7.3" stroke-width="2" stroke-linejoin="round" ed:tosuperid="192" stroke-linecap="round"/><path id="130" transform="matrix(1,0,0,1,427.21,298.69)" stroke="#ff7575" fill="none" ed:parentid="181" d="M-17.5,-7.3C-1.8,-7.3,3,7.3,17.5,7.3" stroke-width="2" stroke-linejoin="round" ed:tosuperid="193" stroke-linecap="round"/><path id="131" transform="matrix(1,0,0,1,427.21,313.31)" stroke="#ff7575" fill="none" ed:parentid="181" d="M-17.5,-21.9C1.5,-21.9,-4.6,21.9,17.5,21.9" stroke-width="2" stroke-linejoin="round" ed:tosuperid="194" stroke-linecap="round"/><path id="132" transform="matrix(1,0,0,1,427.21,327.94)" stroke="#ff7575" fill="none" ed:parentid="181" d="M-17.5,-36.6C4.2,-36.6,-10.9,36.6,17.5,36.6" stroke-width="2" stroke-linejoin="round" ed:tosuperid="195" stroke-linecap="round"/><path id="133" transform="matrix(1,0,0,1,427.21,342.56)" stroke="#ff7575" fill="none" ed:parentid="181" d="M-17.5,-51.2C6.1,-51.2,-15.4,51.2,17.5,51.2" stroke-width="2" stroke-linejoin="round" ed:tosuperid="196" stroke-linecap="round"/><path id="134" transform="matrix(1,0,0,1,532.31,393.75)" stroke="#ff7575" fill="none" ed:parentid="196" d="M-17.5,0C-3.5,0,7,0,17.5,0" stroke-width="2" stroke-linejoin="round" ed:tosuperid="197" stroke-linecap="round"/><path id="135" transform="matrix(1,0,0,1,427.21,357.19)" stroke="#ff7575" fill="none" ed:parentid="181" d="M-17.5,-65.8C7,-65.8,-17.4,65.8,17.5,65.8" stroke-width="2" stroke-linejoin="round" ed:tosuperid="198" stroke-linecap="round"/><path id="136" transform="matrix(1,0,0,1,427.21,371.81)" stroke="#ff7575" fill="none" ed:parentid="181" d="M-17.5,-80.4C7,-80.4,-17.5,80.4,17.5,80.4" stroke-width="2" stroke-linejoin="round" ed:tosuperid="199" stroke-linecap="round"/><path id="137" transform="matrix(1,0,0,1,322.11,521.72)" stroke="#ff7575" fill="none" ed:parentid="180" d="M-17.5,25.6C2.2,25.6,-6.3,-25.6,17.5,-25.6" stroke-width="2" stroke-linejoin="round" ed:tosuperid="200" stroke-linecap="round"/><path id="138" transform="matrix(1,0,0,1,427.21,488.81)" stroke="#ff7575" fill="none" ed:parentid="200" d="M-17.5,7.3C-1.8,7.3,3,-7.3,17.5,-7.3" stroke-width="2" stroke-linejoin="round" ed:tosuperid="201" stroke-linecap="round"/><path id="139" transform="matrix(1,0,0,1,427.21,503.44)" stroke="#ff7575" fill="none" ed:parentid="200" d="M-17.5,-7.3C-1.8,-7.3,3,7.3,17.5,7.3" stroke-width="2" stroke-linejoin="round" ed:tosuperid="202" stroke-linecap="round"/><path id="140" transform="matrix(1,0,0,1,322.11,543.66)" stroke="#ff7575" fill="none" ed:parentid="180" d="M-17.5,3.7C-2.6,3.7,5,-3.7,17.5,-3.7" stroke-width="2" stroke-linejoin="round" ed:tosuperid="203" stroke-linecap="round"/><path id="141" transform="matrix(1,0,0,1,322.11,558.28)" stroke="#ff7575" fill="none" ed:parentid="180" d="M-17.5,-11C-1,-11,1,11,17.5,11" stroke-width="2" stroke-linejoin="round" ed:tosuperid="204" stroke-linecap="round"/><path id="142" transform="matrix(1,0,0,1,322.11,594.84)" stroke="#ff7575" fill="none" ed:parentid="180" d="M-17.5,-47.5C5.7,-47.5,-14.5,47.5,17.5,47.5" stroke-width="2" stroke-linejoin="round" ed:tosuperid="205" stroke-linecap="round"/><path id="143" transform="matrix(1,0,0,1,414.21,620.44)" stroke="#ff7575" fill="none" ed:parentid="205" d="M-17.5,21.9C1.5,21.9,-4.6,-21.9,17.5,-21.9" stroke-width="2" stroke-linejoin="round" ed:tosuperid="206" stroke-linecap="round"/><path id="144" transform="matrix(1,0,0,1,414.21,635.06)" stroke="#ff7575" fill="none" ed:parentid="205" d="M-17.5,7.3C-1.8,7.3,3,-7.3,17.5,-7.3" stroke-width="2" stroke-linejoin="round" ed:tosuperid="207" stroke-linecap="round"/><path id="145" transform="matrix(1,0,0,1,414.21,649.69)" stroke="#ff7575" fill="none" ed:parentid="205" d="M-17.5,-7.3C-1.8,-7.3,3,7.3,17.5,7.3" stroke-width="2" stroke-linejoin="round" ed:tosuperid="208" stroke-linecap="round"/><path id="146" transform="matrix(1,0,0,1,414.21,664.31)" stroke="#ff7575" fill="none" ed:parentid="205" d="M-17.5,-21.9C1.5,-21.9,-4.6,21.9,17.5,21.9" stroke-width="2" stroke-linejoin="round" ed:tosuperid="209" stroke-linecap="round"/><path id="147" transform="matrix(1,0,0,1,322.11,646.03)" stroke="#ff7575" fill="none" ed:parentid="180" d="M-17.5,-98.7C7,-98.7,-17.5,98.7,17.5,98.7" stroke-width="2" stroke-linejoin="round" ed:tosuperid="210" stroke-linecap="round"/><path id="148" transform="matrix(1,0,0,1,427.21,730.13)" stroke="#ff7575" fill="none" ed:parentid="210" d="M-17.5,14.6C-0.1,14.6,-0.9,-14.6,17.5,-14.6" stroke-width="2" stroke-linejoin="round" ed:tosuperid="211" stroke-linecap="round"/><path id="149" transform="matrix(1,0,0,1,427.21,744.75)" stroke="#ff7575" fill="none" ed:parentid="210" d="M-17.5,0C-3.5,0,7,0,17.5,0" stroke-width="2" stroke-linejoin="round" ed:tosuperid="212" stroke-linecap="round"/><path id="150" transform="matrix(1,0,0,1,427.21,759.38)" stroke="#ff7575" fill="none" ed:parentid="210" d="M-17.5,-14.6C-0.1,-14.6,-0.9,14.6,17.5,14.6" stroke-width="2" stroke-linejoin="round" ed:tosuperid="213" stroke-linecap="round"/><path id="151" transform="matrix(1,0,0,1,322.11,675.28)" stroke="#ff7575" fill="none" ed:parentid="180" d="M-17.5,-128C7,-128,-17.5,128,17.5,128" stroke-width="2" stroke-linejoin="round" ed:tosuperid="214" stroke-linecap="round"/><path id="152" transform="matrix(1,0,0,1,134.67,958.86)" fill="#5fb7f1" stroke="#5fb7f1" ed:parentid="215" d="M-7.3,0.2C-9,0.6,-9.8,2.1,-9.4,3.4C-9,4.7,-7.5,5.5,-5.8,4.9C-3.6,4.2,-1.4,3.4,0.8,2.7C3.1,1.9,5.3,1.1,7.4,0.3C9.6,-0.5,11.8,-1.3,14,-2C16.2,-2.8,18.4,-3.6,20.6,-4.3C22.8,-5,25.1,-5.7,27.3,-6.4C29.5,-7,31.7,-7.6,34,-8.2C36.2,-8.8,38.5,-9.3,40.7,-9.7C43,-10.1,45.2,-10.5,47.6,-10.8C50.1,-11.1,52.8,-11.3,54.5,-11.5C56.3,-11.6,57.1,-11.6,57.9,-11.6C58.2,-11.6,58.5,-11.8,58.5,-12.1C58.5,-12.4,58.2,-12.6,57.9,-12.6C57.1,-12.6,56.3,-12.7,54.5,-12.7C52.7,-12.6,49.9,-12.6,47.4,-12.4C45,-12.3,42.7,-12,40.4,-11.7C38.1,-11.4,35.8,-11,33.4,-10.6C31.1,-10.2,28.8,-9.7,26.5,-9.2C24.2,-8.6,22,-8.1,19.7,-7.5C17.4,-6.9,15.2,-6.2,12.9,-5.6C10.7,-5,8.4,-4.3,6.2,-3.6C3.9,-3,1.7,-2.3,-0.5,-1.7C-2.8,-1.1,-5,-0.5,-7.3,0.2z" stroke-linejoin="round" ed:tosuperid="216" stroke-linecap="round"/><path id="153" transform="matrix(1,0,0,1,134.67,1182.8)" fill="#f1a3dc" stroke="#f1a3dc" ed:parentid="215" d="M-30.3,-180.5C-30.9,-182.2,-32.3,-183,-33.6,-182.5C-34.9,-182.1,-35.6,-180.6,-35,-178.9C-34.3,-176.7,-33.6,-174.5,-32.9,-172.3C-32.3,-170.1,-31.7,-167.9,-31.1,-165.7C-30.5,-163.4,-30,-161.2,-29.5,-158.9C-29,-156.7,-28.6,-154.4,-28.1,-152.1C-27.7,-149.9,-27.3,-147.6,-26.9,-145.3C-26.5,-143,-26.1,-140.7,-25.8,-138.4C-25.5,-136.1,-25.1,-133.8,-24.8,-131.5C-24.5,-129.2,-24.2,-126.9,-23.9,-124.6C-23.6,-122.3,-23.4,-120,-23.1,-117.7C-22.9,-115.4,-22.6,-113.1,-22.4,-110.8C-22.2,-108.4,-21.9,-106.1,-21.7,-103.8C-21.5,-101.5,-21.3,-99.2,-21.1,-96.9C-20.9,-94.5,-20.7,-92.2,-20.6,-89.9C-20.4,-87.6,-20.2,-85.2,-20,-82.9C-19.9,-80.6,-19.7,-78.3,-19.5,-75.9C-19.4,-73.6,-19.2,-71.3,-19.1,-69C-18.9,-66.6,-18.8,-64.3,-18.7,-62C-18.5,-59.7,-18.4,-57.3,-18.2,-55C-18.1,-52.7,-18,-50.3,-17.9,-48C-17.7,-45.7,-17.6,-43.4,-17.5,-41C-17.3,-38.7,-17.2,-36.4,-17.1,-34C-17,-31.7,-16.9,-29.4,-16.7,-27.1C-16.6,-24.7,-16.5,-22.4,-16.4,-20.1C-16.2,-17.7,-16.1,-15.4,-16,-13.1C-15.9,-10.7,-15.8,-8.4,-15.6,-6.1C-15.5,-3.8,-15.4,-1.4,-15.3,0.9C-15.1,3.2,-15,5.6,-14.9,7.9C-14.7,10.2,-14.6,12.6,-14.5,14.9C-14.3,17.2,-14.2,19.6,-14,21.9C-13.9,24.2,-13.8,26.5,-13.6,28.9C-13.5,31.2,-13.3,33.5,-13.1,35.9C-13,38.2,-12.8,40.5,-12.7,42.9C-12.5,45.2,-12.3,47.5,-12.1,49.8C-11.9,52.2,-11.8,54.5,-11.6,56.8C-11.4,59.2,-11.2,61.5,-11,63.8C-10.8,66.1,-10.5,68.5,-10.3,70.8C-10.1,73.1,-9.9,75.4,-9.6,77.8C-9.4,80.1,-9.1,82.4,-8.9,84.7C-8.6,87.1,-8.3,89.4,-8.1,91.7C-7.8,94,-7.5,96.3,-7.2,98.7C-6.9,101,-6.5,103.3,-6.2,105.6C-5.9,107.9,-5.5,110.2,-5.2,112.5C-4.8,114.8,-4.4,117.2,-4,119.5C-3.6,121.8,-3.2,124.1,-2.7,126.4C-2.3,128.7,-1.8,131,-1.4,133.2C-0.9,135.5,-0.4,137.8,0.2,140.1C0.7,142.4,1.3,144.6,1.9,146.9C2.5,149.2,3.1,151.4,3.8,153.7C4.4,155.9,5.1,158.2,5.8,160.4C6.6,162.6,7.4,164.8,8.2,167C9,169.2,9.9,171.4,10.8,173.6C11.8,175.7,12.8,177.8,13.8,179.9C14.9,182,16,184.1,17.2,186.1C18.4,188.1,19.7,190.1,21.1,192C22.5,193.9,24,195.8,25.5,197.5C27.1,199.3,28.8,200.9,30.6,202.4C32.4,204,34.4,205.3,36.4,206.6C38.5,207.8,40.6,208.8,42.8,209.7C44.9,210.5,47,211.2,49.6,211.6C52.2,212,55.2,212.2,56.6,212.3C58.1,212.4,58,212.4,57.9,212.3C57.6,212.2,58.5,212.1,58.5,211.8C58.5,211.6,57.6,211.2,57.9,211.3C58,211.4,58.1,211.4,56.7,211.3C55.3,211.2,52.3,211,49.8,210.5C47.3,210.1,45.3,209.4,43.2,208.6C41.1,207.8,39,206.7,37,205.5C35.1,204.3,33.2,203,31.5,201.5C29.7,200,28.1,198.3,26.5,196.6C25,194.9,23.6,193.1,22.2,191.2C20.9,189.3,19.7,187.4,18.5,185.4C17.3,183.4,16.2,181.3,15.2,179.2C14.2,177.2,13.2,175.1,12.3,172.9C11.4,170.8,10.6,168.6,9.8,166.4C9,164.3,8.2,162.1,7.5,159.9C6.8,157.6,6.1,155.4,5.5,153.2C4.9,150.9,4.3,148.7,3.7,146.4C3.1,144.2,2.6,141.9,2.1,139.7C1.6,137.4,1.1,135.1,0.6,132.8C0.2,130.6,-0.3,128.3,-0.7,126C-1.1,123.7,-1.5,121.4,-1.9,119.1C-2.3,116.8,-2.6,114.5,-3,112.2C-3.3,109.9,-3.6,107.6,-4,105.3C-4.3,103,-4.6,100.7,-4.9,98.4C-5.1,96,-5.4,93.7,-5.7,91.4C-5.9,89.1,-6.2,86.8,-6.4,84.5C-6.7,82.2,-6.9,79.8,-7.1,77.5C-7.3,75.2,-7.5,72.9,-7.7,70.6C-7.9,68.2,-8.1,65.9,-8.3,63.6C-8.5,61.3,-8.7,58.9,-8.8,56.6C-9,54.3,-9.2,52,-9.3,49.6C-9.5,47.3,-9.6,45,-9.8,42.7C-9.9,40.3,-10.1,38,-10.2,35.7C-10.3,33.4,-10.5,31,-10.6,28.7C-10.7,26.4,-10.9,24,-11,21.7C-11.1,19.4,-11.2,17.1,-11.3,14.7C-11.4,12.4,-11.6,10.1,-11.7,7.7C-11.8,5.4,-11.9,3.1,-12,0.7C-12.1,-1.6,-12.2,-3.9,-12.3,-6.2C-12.4,-8.6,-12.5,-10.9,-12.6,-13.2C-12.7,-15.6,-12.8,-17.9,-12.9,-20.2C-13,-22.6,-13.1,-24.9,-13.2,-27.2C-13.3,-29.6,-13.4,-31.9,-13.5,-34.2C-13.6,-36.5,-13.7,-38.9,-13.8,-41.2C-13.9,-43.5,-14,-45.9,-14.1,-48.2C-14.2,-50.5,-14.3,-52.9,-14.4,-55.2C-14.6,-57.5,-14.7,-59.9,-14.8,-62.2C-14.9,-64.5,-15,-66.9,-15.2,-69.2C-15.3,-71.5,-15.4,-73.9,-15.6,-76.2C-15.7,-78.5,-15.8,-80.9,-16,-83.2C-16.1,-85.5,-16.3,-87.9,-16.4,-90.2C-16.6,-92.5,-16.8,-94.9,-16.9,-97.2C-17.1,-99.5,-17.3,-101.8,-17.5,-104.2C-17.7,-106.5,-17.9,-108.8,-18.1,-111.2C-18.3,-113.5,-18.5,-115.8,-18.7,-118.2C-19,-120.5,-19.2,-122.8,-19.5,-125.1C-19.7,-127.5,-20,-129.8,-20.3,-132.1C-20.6,-134.5,-20.9,-136.8,-21.2,-139.1C-21.6,-141.4,-21.9,-143.7,-22.3,-146.1C-22.7,-148.4,-23.1,-150.7,-23.5,-153C-23.9,-155.3,-24.3,-157.6,-24.8,-159.9C-25.3,-162.3,-25.8,-164.6,-26.4,-166.9C-26.9,-169.1,-27.5,-171.4,-28.2,-173.7C-28.8,-176,-29.6,-178.3,-30.3,-180.5z" stroke-linejoin="round" ed:tosuperid="217" stroke-linecap="round"/><path id="154" transform="matrix(1,0,0,1,322.11,946.75)" stroke="#5fb7f1" fill="none" ed:parentid="216" d="M-17.5,0C-3.5,0,7,0,17.5,0" stroke-width="2" stroke-linejoin="round" ed:tosuperid="218" stroke-linecap="round"/><path id="155" transform="matrix(1,0,0,1,401.21,902.88)" stroke="#5fb7f1" fill="none" ed:parentid="218" d="M-17.5,43.9C5.2,43.9,-13.4,-43.9,17.5,-43.9" stroke-width="2" stroke-linejoin="round" ed:tosuperid="219" stroke-linecap="round"/><path id="156" transform="matrix(1,0,0,1,401.21,917.5)" stroke="#5fb7f1" fill="none" ed:parentid="218" d="M-17.5,29.3C2.9,29.3,-7.9,-29.3,17.5,-29.3" stroke-width="2" stroke-linejoin="round" ed:tosuperid="220" stroke-linecap="round"/><path id="157" transform="matrix(1,0,0,1,401.21,932.13)" stroke="#5fb7f1" fill="none" ed:parentid="218" d="M-17.5,14.6C-0.1,14.6,-0.9,-14.6,17.5,-14.6" stroke-width="2" stroke-linejoin="round" ed:tosuperid="221" stroke-linecap="round"/><path id="158" transform="matrix(1,0,0,1,401.21,946.75)" stroke="#5fb7f1" fill="none" ed:parentid="218" d="M-17.5,0C-3.5,0,7,0,17.5,0" stroke-width="2" stroke-linejoin="round" ed:tosuperid="222" stroke-linecap="round"/><path id="159" transform="matrix(1,0,0,1,401.21,961.38)" stroke="#5fb7f1" fill="none" ed:parentid="218" d="M-17.5,-14.6C-0.1,-14.6,-0.9,14.6,17.5,14.6" stroke-width="2" stroke-linejoin="round" ed:tosuperid="223" stroke-linecap="round"/><path id="160" transform="matrix(1,0,0,1,401.21,976)" stroke="#5fb7f1" fill="none" ed:parentid="218" d="M-17.5,-29.3C2.9,-29.3,-7.9,29.3,17.5,29.3" stroke-width="2" stroke-linejoin="round" ed:tosuperid="224" stroke-linecap="round"/><path id="161" transform="matrix(1,0,0,1,401.21,990.63)" stroke="#5fb7f1" fill="none" ed:parentid="218" d="M-17.5,-43.9C5.2,-43.9,-13.4,43.9,17.5,43.9" stroke-width="2" stroke-linejoin="round" ed:tosuperid="225" stroke-linecap="round"/><path id="162" transform="matrix(1,0,0,1,134.67,1089.11)" fill="#ffcd55" stroke="#ffcd55" ed:parentid="215" d="M-26.2,-87.9C-26.9,-89.6,-28.4,-90.2,-29.7,-89.7C-30.9,-89.2,-31.5,-87.6,-30.8,-86C-29.9,-83.8,-29.1,-81.7,-28.3,-79.6C-27.5,-77.4,-26.7,-75.3,-26,-73.1C-25.3,-70.9,-24.7,-68.7,-24.1,-66.4C-23.4,-64.2,-22.8,-62,-22.3,-59.7C-21.7,-57.5,-21.2,-55.2,-20.7,-53C-20.2,-50.7,-19.7,-48.4,-19.2,-46.2C-18.7,-43.9,-18.3,-41.6,-17.8,-39.3C-17.4,-37.1,-16.9,-34.8,-16.5,-32.5C-16.1,-30.2,-15.7,-27.9,-15.3,-25.6C-14.9,-23.3,-14.5,-21,-14.1,-18.7C-13.7,-16.4,-13.3,-14.1,-12.9,-11.8C-12.5,-9.5,-12.1,-7.2,-11.8,-4.9C-11.4,-2.6,-11,-0.3,-10.6,2C-10.2,4.3,-9.8,6.6,-9.4,8.9C-9,11.2,-8.6,13.5,-8.2,15.8C-7.8,18.1,-7.4,20.4,-6.9,22.7C-6.5,25,-6.1,27.3,-5.6,29.6C-5.1,31.9,-4.7,34.2,-4.2,36.5C-3.7,38.8,-3.2,41,-2.7,43.3C-2.1,45.6,-1.6,47.9,-1,50.2C-0.4,52.4,0.2,54.7,0.8,56.9C1.4,59.2,2.1,61.5,2.8,63.7C3.5,65.9,4.2,68.2,5,70.4C5.8,72.6,6.6,74.8,7.5,77C8.4,79.1,9.4,81.3,10.4,83.4C11.4,85.6,12.4,87.7,13.6,89.7C14.7,91.8,15.9,93.8,17.3,95.8C18.6,97.7,20,99.6,21.5,101.4C23,103.3,24.7,105,26.4,106.6C28.1,108.2,30,109.7,31.9,111C33.9,112.4,36,113.6,38.1,114.6C40.2,115.6,42.5,116.4,44.8,117C47.1,117.6,49.5,118.1,51.7,118.3C53.9,118.6,55.9,118.6,57.9,118.6C58.2,118.6,58.5,118.4,58.5,118.1C58.5,117.9,58.2,117.7,57.9,117.6C56,117.6,54,117.5,51.9,117.2C49.7,117,47.3,116.5,45.1,115.8C42.9,115.2,40.7,114.4,38.7,113.4C36.6,112.4,34.6,111.2,32.8,109.8C30.9,108.5,29.1,107,27.5,105.5C25.8,103.9,24.3,102.2,22.8,100.4C21.4,98.6,20,96.7,18.8,94.8C17.5,92.8,16.4,90.8,15.3,88.8C14.2,86.8,13.2,84.7,12.2,82.6C11.3,80.5,10.4,78.3,9.5,76.2C8.7,74,7.9,71.8,7.2,69.6C6.5,67.4,5.8,65.2,5.1,63C4.4,60.8,3.8,58.5,3.2,56.3C2.6,54,2.1,51.8,1.6,49.5C1,47.3,0.5,45,0,42.7C-0.5,40.5,-0.9,38.2,-1.4,35.9C-1.8,33.6,-2.2,31.3,-2.7,29C-3.1,26.7,-3.5,24.4,-3.9,22.2C-4.3,19.9,-4.6,17.6,-5,15.3C-5.4,13,-5.8,10.7,-6.1,8.4C-6.5,6.1,-6.8,3.7,-7.2,1.4C-7.5,-0.9,-7.9,-3.2,-8.2,-5.5C-8.6,-7.8,-8.9,-10.1,-9.3,-12.4C-9.6,-14.7,-10,-17,-10.3,-19.3C-10.7,-21.6,-11,-23.9,-11.4,-26.3C-11.8,-28.6,-12.1,-30.9,-12.5,-33.2C-12.9,-35.5,-13.3,-37.8,-13.7,-40.1C-14.1,-42.4,-14.5,-44.7,-15,-47C-15.4,-49.3,-15.9,-51.6,-16.4,-53.9C-16.8,-56.2,-17.3,-58.5,-17.9,-60.8C-18.4,-63.1,-19,-65.4,-19.6,-67.7C-20.2,-69.9,-20.8,-72.2,-21.5,-74.5C-22.2,-76.7,-22.9,-79,-23.7,-81.2C-24.5,-83.5,-25.3,-85.7,-26.2,-87.9z" stroke-linejoin="round" ed:tosuperid="226" stroke-linecap="round"/><path id="163" transform="matrix(1,0,0,1,322.11,1148.75)" stroke="#ffcd55" fill="none" ed:parentid="226" d="M-17.5,58.5C6.7,58.5,-16.7,-58.5,17.5,-58.5" stroke-width="2" stroke-linejoin="round" ed:tosuperid="227" stroke-linecap="round"/><path id="164" transform="matrix(1,0,0,1,401.21,1090.25)" stroke="#ffcd55" fill="none" ed:parentid="227" d="M-17.5,0C-3.5,0,7,0,17.5,0" stroke-width="2" stroke-linejoin="round" ed:tosuperid="228" stroke-linecap="round"/><path id="165" transform="matrix(1,0,0,1,322.11,1178)" stroke="#ffcd55" fill="none" ed:parentid="226" d="M-17.5,29.3C2.9,29.3,-7.9,-29.3,17.5,-29.3" stroke-width="2" stroke-linejoin="round" ed:tosuperid="229" stroke-linecap="round"/><path id="166" transform="matrix(1,0,0,1,401.21,1134.13)" stroke="#ffcd55" fill="none" ed:parentid="229" d="M-17.5,14.6C-0.1,14.6,-0.9,-14.6,17.5,-14.6" stroke-width="2" stroke-linejoin="round" ed:tosuperid="230" stroke-linecap="round"/><path id="167" transform="matrix(1,0,0,1,401.21,1148.75)" stroke="#ffcd55" fill="none" ed:parentid="229" d="M-17.5,0C-3.5,0,7,0,17.5,0" stroke-width="2" stroke-linejoin="round" ed:tosuperid="231" stroke-linecap="round"/><path id="168" transform="matrix(1,0,0,1,401.21,1163.38)" stroke="#ffcd55" fill="none" ed:parentid="229" d="M-17.5,-14.6C-0.1,-14.6,-0.9,14.6,17.5,14.6" stroke-width="2" stroke-linejoin="round" ed:tosuperid="232" stroke-linecap="round"/><path id="169" transform="matrix(1,0,0,1,322.11,1207.25)" stroke="#ffcd55" fill="none" ed:parentid="226" d="M-17.5,0C-3.5,0,7,0,17.5,0" stroke-width="2" stroke-linejoin="round" ed:tosuperid="233" stroke-linecap="round"/><path id="170" transform="matrix(1,0,0,1,322.11,1236.5)" stroke="#ffcd55" fill="none" ed:parentid="226" d="M-17.5,-29.3C2.9,-29.3,-7.9,29.3,17.5,29.3" stroke-width="2" stroke-linejoin="round" ed:tosuperid="234" stroke-linecap="round"/><path id="171" transform="matrix(1,0,0,1,440.21,1251.13)" stroke="#ffcd55" fill="none" ed:parentid="234" d="M-17.5,14.6C-0.1,14.6,-0.9,-14.6,17.5,-14.6" stroke-width="2" stroke-linejoin="round" ed:tosuperid="235" stroke-linecap="round"/><path id="172" transform="matrix(1,0,0,1,440.21,1265.75)" stroke="#ffcd55" fill="none" ed:parentid="234" d="M-17.5,0C-3.5,0,7,0,17.5,0" stroke-width="2" stroke-linejoin="round" ed:tosuperid="236" stroke-linecap="round"/><path id="173" transform="matrix(1,0,0,1,440.21,1280.38)" stroke="#ffcd55" fill="none" ed:parentid="234" d="M-17.5,-14.6C-0.1,-14.6,-0.9,14.6,17.5,14.6" stroke-width="2" stroke-linejoin="round" ed:tosuperid="237" stroke-linecap="round"/><path id="174" transform="matrix(1,0,0,1,322.11,1265.75)" stroke="#ffcd55" fill="none" ed:parentid="226" d="M-17.5,-58.5C6.7,-58.5,-16.7,58.5,17.5,58.5" stroke-width="2" stroke-linejoin="round" ed:tosuperid="238" stroke-linecap="round"/><path id="175" transform="matrix(1,0,0,1,401.21,1324.25)" stroke="#ffcd55" fill="none" ed:parentid="238" d="M-17.5,0C-3.5,0,7,0,17.5,0" stroke-width="2" stroke-linejoin="round" ed:tosuperid="239" stroke-linecap="round"/><path id="176" transform="matrix(1,0,0,1,316.52,1387.31)" stroke="#f1a3dc" fill="none" ed:parentid="217" d="M-17.5,7.3C-1.8,7.3,3,-7.3,17.5,-7.3" stroke-width="2" stroke-linejoin="round" ed:tosuperid="240" stroke-linecap="round"/><path id="177" transform="matrix(1,0,0,1,316.52,1401.94)" stroke="#f1a3dc" fill="none" ed:parentid="217" d="M-17.5,-7.3C-1.8,-7.3,3,7.3,17.5,7.3" stroke-width="2" stroke-linejoin="round" ed:tosuperid="241" stroke-linecap="round"/><path id="178" transform="matrix(1,0,0,1,395.62,1380)" stroke="#f1a3dc" fill="none" ed:parentid="240" d="M-17.5,0C-3.5,0,7,0,17.5,0" stroke-width="2" stroke-linejoin="round" ed:tosuperid="242" stroke-linecap="round"/><path id="179" transform="matrix(1,0,0,1,408.62,1409.25)" stroke="#f1a3dc" fill="none" ed:parentid="241" d="M-17.5,0C-3.5,0,7,0,17.5,0" stroke-width="2" stroke-linejoin="round" ed:tosuperid="243" stroke-linecap="round"/><g id="180" transform="matrix(1,0,0,1,192.56,509.56)" ed:parentid="215" ed:width="112" ed:height="37.75"><path stroke="#ff7575" fill="none" d="M0,37.8L112,37.8" stroke-width="2" stroke-linejoin="round"/><text class="st36"><tspan style="white-space:pre" y="27.15" x="17" textLength="76">开发规约</tspan></text></g><g id="181" transform="matrix(1,0,0,1,339.66,268.63)" ed:parentid="180" ed:width="70" ed:height="22.75"><path stroke="#ff7575" fill="none" d="M0,22.8L70,22.8" stroke-width="2" stroke-linejoin="round"/><text class="st37"><tspan style="white-space:pre" y="16.525" x="8" textLength="52">编程规约</tspan></text></g><g id="182" transform="matrix(1,0,0,1,444.76,107.75)" ed:parentid="181" ed:width="70" ed:height="22.75"><path stroke="#ff7575" fill="none" d="M0,22.8L70,22.8" stroke-width="2" stroke-linejoin="round"/><text class="st37"><tspan style="white-space:pre" y="16.525" x="8" textLength="52">命名风格</tspan></text></g><g id="183" transform="matrix(1,0,0,1,549.86,20)" ed:parentid="182" ed:width="109" ed:height="22.75"><path stroke="#ff7575" fill="none" d="M0,22.8L109,22.8" stroke-width="2" stroke-linejoin="round"/><text class="st37"><tspan style="white-space:pre" y="16.525" x="8" textLength="91">不能有特殊符号</tspan></text></g><g id="184" transform="matrix(1,0,0,1,549.86,49.25)" ed:parentid="182" ed:width="83" ed:height="22.75"><path stroke="#ff7575" fill="none" d="M0,22.8L83,22.8" stroke-width="2" stroke-linejoin="round"/><text class="st37"><tspan style="white-space:pre" y="16.525" x="8" textLength="65">中英文混合</tspan></text></g><g id="185" transform="matrix(1,0,0,1,549.86,78.5)" ed:parentid="182" ed:width="44" ed:height="22.75"><path stroke="#ff7575" fill="none" d="M0,22.8L44,22.8" stroke-width="2" stroke-linejoin="round"/><text class="st37"><tspan style="white-space:pre" y="16.525" x="8" textLength="26">驼峰</tspan></text></g><g id="186" transform="matrix(1,0,0,1,549.86,107.75)" ed:parentid="182" ed:width="70" ed:height="22.75"><path stroke="#ff7575" fill="none" d="M0,22.8L70,22.8" stroke-width="2" stroke-linejoin="round"/><text class="st37"><tspan style="white-space:pre" y="16.525" x="8" textLength="52">常量大写</tspan></text></g><g id="187" transform="matrix(1,0,0,1,549.86,137)" ed:parentid="182" ed:width="135" ed:height="22.75"><path stroke="#ff7575" fill="none" d="M0,22.8L135,22.8" stroke-width="2" stroke-linejoin="round"/><text class="st37"><tspan style="white-space:pre" y="16.525" x="8" textLength="117">抽象特殊开头或结尾</tspan></text></g><g id="188" transform="matrix(1,0,0,1,549.86,166.25)" ed:parentid="182" ed:width="70" ed:height="22.75"><path stroke="#ff7575" fill="none" d="M0,22.8L70,22.8" stroke-width="2" stroke-linejoin="round"/><text class="st37"><tspan style="white-space:pre" y="16.525" x="8" textLength="52">望文知意</tspan></text></g><g id="189" transform="matrix(1,0,0,1,549.86,195.5)" ed:parentid="182" ed:width="83" ed:height="22.75"><path stroke="#ff7575" fill="none" d="M0,22.8L83,22.8" stroke-width="2" stroke-linejoin="round"/><text class="st37"><tspan style="white-space:pre" y="16.525" x="8" textLength="65">层命名规则</tspan></text></g><g id="190" transform="matrix(1,0,0,1,444.76,239.38)" ed:parentid="181" ed:width="70" ed:height="22.75"><path stroke="#ff7575" fill="none" d="M0,22.8L70,22.8" stroke-width="2" stroke-linejoin="round"/><text class="st37"><tspan style="white-space:pre" y="16.525" x="8" textLength="52">常量定义</tspan></text></g><g id="191" transform="matrix(1,0,0,1,549.86,224.75)" ed:parentid="190" ed:width="57" ed:height="22.75"><path stroke="#ff7575" fill="none" d="M0,22.8L57,22.8" stroke-width="2" stroke-linejoin="round"/><text class="st37"><tspan style="white-space:pre" y="16.525" x="8" textLength="39">魔法值</tspan></text></g><g id="192" transform="matrix(1,0,0,1,549.86,254)" ed:parentid="190" ed:width="70" ed:height="22.75"><path stroke="#ff7575" fill="none" d="M0,22.8L70,22.8" stroke-width="2" stroke-linejoin="round"/><text class="st37"><tspan style="white-space:pre" y="16.525" x="8" textLength="52">引起歧义</tspan></text></g><g id="193" transform="matrix(1,0,0,1,444.76,283.25)" ed:parentid="181" ed:width="70" ed:height="22.75"><path stroke="#ff7575" fill="none" d="M0,22.8L70,22.8" stroke-width="2" stroke-linejoin="round"/><text class="st37"><tspan style="white-space:pre" y="16.525" x="8" textLength="52">代码格式</tspan></text></g><g id="194" transform="matrix(1,0,0,1,444.76,312.5)" ed:parentid="181" ed:width="68.140625" ed:height="22.75"><path stroke="#ff7575" fill="none" d="M0,22.8L68.1,22.8" stroke-width="2" stroke-linejoin="round"/><text class="st37"><tspan style="white-space:pre" y="16.525" x="8" textLength="50">oop规约</tspan></text></g><g id="195" transform="matrix(1,0,0,1,444.76,341.75)" ed:parentid="181" ed:width="70" ed:height="22.75"><path stroke="#ff7575" fill="none" d="M0,22.8L70,22.8" stroke-width="2" stroke-linejoin="round"/><text class="st37"><tspan style="white-space:pre" y="16.525" x="8" textLength="52">集合处理</tspan></text></g><g id="196" transform="matrix(1,0,0,1,444.76,371)" ed:parentid="181" ed:width="70" ed:height="22.75"><path stroke="#ff7575" fill="none" d="M0,22.8L70,22.8" stroke-width="2" stroke-linejoin="round"/><text class="st37"><tspan style="white-space:pre" y="16.525" x="8" textLength="52">并发处理</tspan></text></g><g id="197" transform="matrix(1,0,0,1,549.86,371)" ed:parentid="196" ed:width="44" ed:height="22.75"><path stroke="#ff7575" fill="none" d="M0,22.8L44,22.8" stroke-width="2" stroke-linejoin="round"/><text class="st37"><tspan style="white-space:pre" y="16.525" x="8" textLength="26">工厂</tspan></text></g><g id="198" transform="matrix(1,0,0,1,444.76,400.25)" ed:parentid="181" ed:width="70" ed:height="22.75"><path stroke="#ff7575" fill="none" d="M0,22.8L70,22.8" stroke-width="2" stroke-linejoin="round"/><text class="st37"><tspan style="white-space:pre" y="16.525" x="8" textLength="52">控制语句</tspan></text></g><g id="199" transform="matrix(1,0,0,1,444.76,429.5)" ed:parentid="181" ed:width="70" ed:height="22.75"><path stroke="#ff7575" fill="none" d="M0,22.8L70,22.8" stroke-width="2" stroke-linejoin="round"/><text class="st37"><tspan style="white-space:pre" y="16.525" x="8" textLength="52">注释规约</tspan></text></g><g id="200" transform="matrix(1,0,0,1,339.66,473.38)" ed:parentid="180" ed:width="70" ed:height="22.75"><path stroke="#ff7575" fill="none" d="M0,22.8L70,22.8" stroke-width="2" stroke-linejoin="round"/><text class="st37"><tspan style="white-space:pre" y="16.525" x="8" textLength="52">异常日志</tspan></text></g><g id="201" transform="matrix(1,0,0,1,444.76,458.75)" ed:parentid="200" ed:width="70" ed:height="22.75"><path stroke="#ff7575" fill="none" d="M0,22.8L70,22.8" stroke-width="2" stroke-linejoin="round"/><text class="st37"><tspan style="white-space:pre" y="16.525" x="8" textLength="52">异常处理</tspan></text></g><g id="202" transform="matrix(1,0,0,1,444.76,488)" ed:parentid="200" ed:width="70" ed:height="22.75"><path stroke="#ff7575" fill="none" d="M0,22.8L70,22.8" stroke-width="2" stroke-linejoin="round"/><text class="st37"><tspan style="white-space:pre" y="16.525" x="8" textLength="52">日志规约</tspan></text></g><g id="203" transform="matrix(1,0,0,1,339.66,517.25)" ed:parentid="180" ed:width="70" ed:height="22.75"><path stroke="#ff7575" fill="none" d="M0,22.8L70,22.8" stroke-width="2" stroke-linejoin="round"/><text class="st37"><tspan style="white-space:pre" y="16.525" x="8" textLength="52">单元测试</tspan></text></g><g id="204" transform="matrix(1,0,0,1,339.66,546.5)" ed:parentid="180" ed:width="70" ed:height="22.75"><path stroke="#ff7575" fill="none" d="M0,22.8L70,22.8" stroke-width="2" stroke-linejoin="round"/><text class="st37"><tspan style="white-space:pre" y="16.525" x="8" textLength="52">安全规约</tspan></text></g><g id="205" transform="matrix(1,0,0,1,339.66,619.63)" ed:parentid="180" ed:width="57" ed:height="22.75"><path stroke="#ff7575" fill="none" d="M0,22.8L57,22.8" stroke-width="2" stroke-linejoin="round"/><text class="st37"><tspan style="white-space:pre" y="16.525" x="8" textLength="39">数据库</tspan></text></g><g id="206" transform="matrix(1,0,0,1,431.76,575.75)" ed:parentid="205" ed:width="70" ed:height="22.75"><path stroke="#ff7575" fill="none" d="M0,22.8L70,22.8" stroke-width="2" stroke-linejoin="round"/><text class="st37"><tspan style="white-space:pre" y="16.525" x="8" textLength="52">建标规约</tspan></text></g><g id="207" transform="matrix(1,0,0,1,431.76,605)" ed:parentid="205" ed:width="70" ed:height="22.75"><path stroke="#ff7575" fill="none" d="M0,22.8L70,22.8" stroke-width="2" stroke-linejoin="round"/><text class="st37"><tspan style="white-space:pre" y="16.525" x="8" textLength="52">索引规约</tspan></text></g><g id="208" transform="matrix(1,0,0,1,431.76,634.25)" ed:parentid="205" ed:width="62.546875" ed:height="22.75"><path stroke="#ff7575" fill="none" d="M0,22.8L62.5,22.8" stroke-width="2" stroke-linejoin="round"/><text class="st37"><tspan style="white-space:pre" y="16.525" x="8" textLength="45">sql语句</tspan></text></g><g id="209" transform="matrix(1,0,0,1,431.76,663.5)" ed:parentid="205" ed:width="69.421875" ed:height="22.75"><path stroke="#ff7575" fill="none" d="M0,22.8L69.4,22.8" stroke-width="2" stroke-linejoin="round"/><text class="st37"><tspan style="white-space:pre" y="16.525" x="8" textLength="51">orm映射</tspan></text></g><g id="210" transform="matrix(1,0,0,1,339.66,722)" ed:parentid="180" ed:width="70" ed:height="22.75"><path stroke="#ff7575" fill="none" d="M0,22.8L70,22.8" stroke-width="2" stroke-linejoin="round"/><text class="st37"><tspan style="white-space:pre" y="16.525" x="8" textLength="52">工程结构</tspan></text></g><g id="211" transform="matrix(1,0,0,1,444.76,692.75)" ed:parentid="210" ed:width="70" ed:height="22.75"><path stroke="#ff7575" fill="none" d="M0,22.8L70,22.8" stroke-width="2" stroke-linejoin="round"/><text class="st37"><tspan style="white-space:pre" y="16.525" x="8" textLength="52">应用分层</tspan></text></g><g id="212" transform="matrix(1,0,0,1,444.76,722)" ed:parentid="210" ed:width="83" ed:height="22.75"><path stroke="#ff7575" fill="none" d="M0,22.8L83,22.8" stroke-width="2" stroke-linejoin="round"/><text class="st37"><tspan style="white-space:pre" y="16.525" x="8" textLength="65">二方库依赖</tspan></text></g><g id="213" transform="matrix(1,0,0,1,444.76,751.25)" ed:parentid="210" ed:width="57" ed:height="22.75"><path stroke="#ff7575" fill="none" d="M0,22.8L57,22.8" stroke-width="2" stroke-linejoin="round"/><text class="st37"><tspan style="white-space:pre" y="16.525" x="8" textLength="39">服务器</tspan></text></g><g id="214" transform="matrix(1,0,0,1,339.66,780.5)" ed:parentid="180" ed:width="70" ed:height="22.75"><path stroke="#ff7575" fill="none" d="M0,22.8L70,22.8" stroke-width="2" stroke-linejoin="round"/><text class="st37"><tspan style="white-space:pre" y="16.525" x="8" textLength="52">设计规约</tspan></text></g><g id="215" transform="matrix(1,0,0,1,24,938.47)" ed:layout="rightmap" ed:width="105.56" ed:topictype="mainidea" ed:height="65"><path fill="#ffffff" stroke="#ffffff" d="M32.5,0L73.1,0C91,0,105.6,14.6,105.6,32.5C105.6,50.4,91,65,73.1,65L32.5,65C14.6,65,0,50.4,0,32.5C0,14.6,14.6,0,32.5,0z" stroke-width="4" stroke-linejoin="round"/><text class="st38"><tspan style="white-space:pre" y="43.5" x="28" textLength="48">开发</tspan></text></g><g id="216" transform="matrix(1,0,0,1,192.56,909)" ed:parentid="215" ed:width="112" ed:height="37.75"><path stroke="#5fb7f1" fill="none" d="M0,37.8L112,37.8" stroke-width="2" stroke-linejoin="round"/><text class="st36"><tspan style="white-space:pre" y="27.15" x="17" textLength="76">敏捷开发</tspan></text></g><g id="217" transform="matrix(1,0,0,1,192.56,1360.88)" ed:parentid="215" ed:width="106.40625" ed:height="33.75"><path stroke="#f1a3dc" fill="none" d="M0,33.8L106.4,33.8" stroke-width="2" stroke-linejoin="round"/><text class="st36"><tspan style="white-space:pre" y="23.15" x="17" textLength="70">devops</tspan></text></g><g id="218" transform="matrix(1,0,0,1,339.66,924)" ed:parentid="216" ed:width="44" ed:height="22.75"><path stroke="#5fb7f1" fill="none" d="M0,22.8L44,22.8" stroke-width="2" stroke-linejoin="round"/><text class="st37"><tspan style="white-space:pre" y="16.525" x="8" textLength="26">步骤</tspan></text></g><g id="219" transform="matrix(1,0,0,1,418.76,836.25)" ed:parentid="218" ed:width="126.109375" ed:height="22.75"><path stroke="#5fb7f1" fill="none" d="M0,22.8L126.1,22.8" stroke-width="2" stroke-linejoin="round"/><text class="st37"><tspan style="white-space:pre" y="16.525" x="8" textLength="108">目标执行,目标对齐</tspan></text></g><g id="220" transform="matrix(1,0,0,1,418.76,865.5)" ed:parentid="218" ed:width="70" ed:height="22.75"><path stroke="#5fb7f1" fill="none" d="M0,22.8L70,22.8" stroke-width="2" stroke-linejoin="round"/><text class="st37"><tspan style="white-space:pre" y="16.525" x="8" textLength="52">产品规划</tspan></text></g><g id="221" transform="matrix(1,0,0,1,418.76,894.75)" ed:parentid="218" ed:width="122" ed:height="22.75"><path stroke="#5fb7f1" fill="none" d="M0,22.8L122,22.8" stroke-width="2" stroke-linejoin="round"/><text class="st37"><tspan style="white-space:pre" y="16.525" x="8" textLength="104">组织产品待办列表</tspan></text></g><g id="222" transform="matrix(1,0,0,1,418.76,924)" ed:parentid="218" ed:width="70" ed:height="22.75"><path stroke="#5fb7f1" fill="none" d="M0,22.8L70,22.8" stroke-width="2" stroke-linejoin="round"/><text class="st37"><tspan style="white-space:pre" y="16.525" x="8" textLength="52">需求梳理</tspan></text></g><g id="223" transform="matrix(1,0,0,1,418.76,953.25)" ed:parentid="218" ed:width="70" ed:height="22.75"><path stroke="#5fb7f1" fill="none" d="M0,22.8L70,22.8" stroke-width="2" stroke-linejoin="round"/><text class="st37"><tspan style="white-space:pre" y="16.525" x="8" textLength="52">迭代规划</tspan></text></g><g id="224" transform="matrix(1,0,0,1,418.76,982.5)" ed:parentid="218" ed:width="70" ed:height="22.75"><path stroke="#5fb7f1" fill="none" d="M0,22.8L70,22.8" stroke-width="2" stroke-linejoin="round"/><text class="st37"><tspan style="white-space:pre" y="16.525" x="8" textLength="52">迭代开发</tspan></text></g><g id="225" transform="matrix(1,0,0,1,418.76,1011.75)" ed:parentid="218" ed:width="83" ed:height="22.75"><path stroke="#5fb7f1" fill="none" d="M0,22.8L83,22.8" stroke-width="2" stroke-linejoin="round"/><text class="st37"><tspan style="white-space:pre" y="16.525" x="8" textLength="65">开回顾会议</tspan></text></g><g id="226" transform="matrix(1,0,0,1,192.56,1169.5)" ed:parentid="215" ed:width="112" ed:height="37.75"><path stroke="#ffcd55" fill="none" d="M0,37.8L112,37.8" stroke-width="2" stroke-linejoin="round"/><text class="st36"><tspan style="white-space:pre" y="27.15" x="17" textLength="76">项目管理</tspan></text></g><g id="227" transform="matrix(1,0,0,1,339.66,1067.5)" ed:parentid="226" ed:width="44" ed:height="22.75"><path stroke="#ffcd55" fill="none" d="M0,22.8L44,22.8" stroke-width="2" stroke-linejoin="round"/><text class="st37"><tspan style="white-space:pre" y="16.525" x="8" textLength="26">启动</tspan></text></g><g id="228" transform="matrix(1,0,0,1,418.76,1067.5)" ed:parentid="227" ed:width="109" ed:height="22.75"><path stroke="#ffcd55" fill="none" d="M0,22.8L109,22.8" stroke-width="2" stroke-linejoin="round"/><text class="st37"><tspan style="white-space:pre" y="16.525" x="8" textLength="91">明确目的和目标</tspan></text></g><g id="229" transform="matrix(1,0,0,1,339.66,1126)" ed:parentid="226" ed:width="44" ed:height="22.75"><path stroke="#ffcd55" fill="none" d="M0,22.8L44,22.8" stroke-width="2" stroke-linejoin="round"/><text class="st37"><tspan style="white-space:pre" y="16.525" x="8" textLength="26">计划</tspan></text></g><g id="230" transform="matrix(1,0,0,1,418.76,1096.75)" ed:parentid="229" ed:width="70" ed:height="22.75"><path stroke="#ffcd55" fill="none" d="M0,22.8L70,22.8" stroke-width="2" stroke-linejoin="round"/><text class="st37"><tspan style="white-space:pre" y="16.525" x="8" textLength="52">进度计划</tspan></text></g><g id="231" transform="matrix(1,0,0,1,418.76,1126)" ed:parentid="229" ed:width="70" ed:height="22.75"><path stroke="#ffcd55" fill="none" d="M0,22.8L70,22.8" stroke-width="2" stroke-linejoin="round"/><text class="st37"><tspan style="white-space:pre" y="16.525" x="8" textLength="52">风险计划</tspan></text></g><g id="232" transform="matrix(1,0,0,1,418.76,1155.25)" ed:parentid="229" ed:width="70" ed:height="22.75"><path stroke="#ffcd55" fill="none" d="M0,22.8L70,22.8" stroke-width="2" stroke-linejoin="round"/><text class="st37"><tspan style="white-space:pre" y="16.525" x="8" textLength="52">沟通计划</tspan></text></g><g id="233" transform="matrix(1,0,0,1,339.66,1184.5)" ed:parentid="226" ed:width="44" ed:height="22.75"><path stroke="#ffcd55" fill="none" d="M0,22.8L44,22.8" stroke-width="2" stroke-linejoin="round"/><text class="st37"><tspan style="white-space:pre" y="16.525" x="8" textLength="26">执行</tspan></text></g><g id="234" transform="matrix(1,0,0,1,339.66,1243)" ed:parentid="226" ed:width="83" ed:height="22.75"><path stroke="#ffcd55" fill="none" d="M0,22.8L83,22.8" stroke-width="2" stroke-linejoin="round"/><text class="st37"><tspan style="white-space:pre" y="16.525" x="8" textLength="65">监测与控制</tspan></text></g><g id="235" transform="matrix(1,0,0,1,457.76,1213.75)" ed:parentid="234" ed:width="70" ed:height="22.75"><path stroke="#ffcd55" fill="none" d="M0,22.8L70,22.8" stroke-width="2" stroke-linejoin="round"/><text class="st37"><tspan style="white-space:pre" y="16.525" x="8" textLength="52">进度管理</tspan></text></g><g id="236" transform="matrix(1,0,0,1,457.76,1243)" ed:parentid="234" ed:width="70" ed:height="22.75"><path stroke="#ffcd55" fill="none" d="M0,22.8L70,22.8" stroke-width="2" stroke-linejoin="round"/><text class="st37"><tspan style="white-space:pre" y="16.525" x="8" textLength="52">风险管理</tspan></text></g><g id="237" transform="matrix(1,0,0,1,457.76,1272.25)" ed:parentid="234" ed:width="70" ed:height="22.75"><path stroke="#ffcd55" fill="none" d="M0,22.8L70,22.8" stroke-width="2" stroke-linejoin="round"/><text class="st37"><tspan style="white-space:pre" y="16.525" x="8" textLength="52">阶段报告</tspan></text></g><g id="238" transform="matrix(1,0,0,1,339.66,1301.5)" ed:parentid="226" ed:width="44" ed:height="22.75"><path stroke="#ffcd55" fill="none" d="M0,22.8L44,22.8" stroke-width="2" stroke-linejoin="round"/><text class="st37"><tspan style="white-space:pre" y="16.525" x="8" textLength="26">收尾</tspan></text></g><g id="239" transform="matrix(1,0,0,1,418.76,1301.5)" ed:parentid="238" ed:width="217.109375" ed:height="22.75"><path stroke="#ffcd55" fill="none" d="M0,22.8L217.1,22.8" stroke-width="2" stroke-linejoin="round"/><text class="st37"><tspan style="white-space:pre" y="16.525" x="8" textLength="199">审查各阶段收尾,确保项目工作完成</tspan></text></g><g id="240" transform="matrix(1,0,0,1,334.07,1357.25)" ed:parentid="217" ed:width="44" ed:height="22.75"><path stroke="#f1a3dc" fill="none" d="M0,22.8L44,22.8" stroke-width="2" stroke-linejoin="round"/><text class="st37"><tspan style="white-space:pre" y="16.525" x="8" textLength="26">含义</tspan></text></g><g id="241" transform="matrix(1,0,0,1,334.07,1386.5)" ed:parentid="217" ed:width="57" ed:height="22.75"><path stroke="#f1a3dc" fill="none" d="M0,22.8L57,22.8" stroke-width="2" stroke-linejoin="round"/><text class="st37"><tspan style="white-space:pre" y="16.525" x="8" textLength="39">大白话</tspan></text></g><g id="242" transform="matrix(1,0,0,1,413.17,1357.25)" ed:parentid="240" ed:width="109" ed:height="22.75"><path stroke="#f1a3dc" fill="none" d="M0,22.8L109,22.8" stroke-width="2" stroke-linejoin="round"/><text class="st37"><tspan style="white-space:pre" y="16.525" x="8" textLength="91">开发运维一体化</tspan></text></g><g id="243" transform="matrix(1,0,0,1,426.17,1386.5)" ed:parentid="241" ed:width="469.4375" ed:height="22.75"><path stroke="#f1a3dc" fill="none" d="M0,22.8L469.4,22.8" stroke-width="2" stroke-linejoin="round"/><text class="st37"><tspan style="white-space:pre" y="16.525" x="8" textLength="451">利用工具或平台让软件生命流程(开发,测试,运维,qa)更自动,高效,更畅通,更可控</tspan></text></g></svg>