<svg id="page300000107" xmlns:xlink="http://www.w3.org/1999/xlink" ed:name="interface_design" height="912" xmlns="http://www.w3.org/2000/svg" viewBox="0 0 572 912" xmlns:ev="http://www.w3.org/2001/xml-events" xmlns:ed="https://www.edrawsoft.cn/xml/2017/SVGExtensions/" width="572" ed:vSpacing="30" ed:hSpacing="30"><style type="text/css"><![CDATA[
g[ed\:togtopicid],g[ed\:hyperlink],g[ed\:comment],g[ed\:note] {cursor:pointer;}
g[id] {-moz-user-select: none;-ms-user-select: none;user-select: none;}
svg text::selection,svg tspan::selection{background-color: #4285f4;color: #ffffff;fill: #ffffff;}
.st31 {fill:#454545;font-family:微软雅黑;font-size:14.25pt;font-weight:bold}
.st30 {fill:#454545;font-family:微软雅黑;font-size:18pt;font-weight:bold}
.st32 {fill:#454545;font-family:微软雅黑;font-size:9.75pt}
]]></style><defs/><rect height="912" fill="#ffffff" y="0" x="0" width="572"/><path id="115" transform="matrix(1,0,0,1,170.67,217.56)" fill="#ff7575" stroke="#ff7575" ed:parentid="149" d="M-35.6,67.9C-36.5,69.5,-36.1,71.1,-34.9,71.8C-33.7,72.5,-32.1,72,-31.3,70.4C-30.1,68.4,-29,66.3,-27.9,64.1C-26.9,62,-25.9,59.9,-24.9,57.7C-24,55.5,-23,53.4,-22.2,51.2C-21.3,49,-20.4,46.8,-19.6,44.6C-18.8,42.4,-18,40.1,-17.3,37.9C-16.5,35.7,-15.8,33.5,-15.1,31.2C-14.4,29,-13.7,26.8,-13,24.5C-12.3,22.3,-11.6,20,-11,17.8C-10.3,15.6,-9.7,13.3,-9,11.1C-8.4,8.8,-7.8,6.6,-7.1,4.3C-6.5,2.1,-5.8,-0.2,-5.2,-2.4C-4.6,-4.7,-3.9,-6.9,-3.3,-9.1C-2.6,-11.4,-2,-13.6,-1.3,-15.8C-0.7,-18.1,0,-20.3,0.7,-22.5C1.4,-24.8,2.1,-27,2.8,-29.2C3.5,-31.4,4.2,-33.6,5,-35.8C5.7,-38,6.5,-40.2,7.3,-42.4C8.1,-44.5,9,-46.7,9.8,-48.8C10.7,-51,11.6,-53.1,12.6,-55.2C13.5,-57.4,14.5,-59.5,15.5,-61.5C16.6,-63.6,17.7,-65.6,18.8,-67.6C20,-69.6,21.2,-71.6,22.5,-73.5C23.7,-75.5,25.1,-77.3,26.5,-79.1C27.9,-81,29.4,-82.7,31,-84.4C32.6,-86,34.3,-87.6,36.1,-89.1C37.8,-90.6,39.7,-91.9,41.6,-93.2C43.5,-94.4,45.6,-95.5,47.7,-96.5C49.8,-97.4,52,-98.2,54.1,-98.9C56.3,-99.6,58.4,-100.1,60.9,-100.4C63.3,-100.8,66.2,-101,67.8,-101.1C69.3,-101.2,69.6,-101.2,69.9,-101.2C70.2,-101.2,70.5,-101.4,70.5,-101.7C70.5,-102,70.2,-102.2,69.9,-102.2C69.6,-102.2,69.3,-102.2,67.7,-102.2C66.1,-102.1,63.2,-101.9,60.7,-101.6C58.1,-101.3,56,-100.8,53.8,-100.1C51.5,-99.5,49.3,-98.7,47.1,-97.8C44.9,-96.8,42.8,-95.7,40.8,-94.5C38.8,-93.2,36.8,-91.9,35,-90.4C33.1,-88.9,31.4,-87.3,29.7,-85.6C28,-84,26.5,-82.2,25,-80.4C23.5,-78.5,22.1,-76.7,20.7,-74.7C19.4,-72.8,18.1,-70.8,16.9,-68.8C15.7,-66.7,14.5,-64.7,13.4,-62.6C12.3,-60.5,11.3,-58.4,10.3,-56.3C9.3,-54.2,8.3,-52,7.4,-49.9C6.5,-47.7,5.6,-45.5,4.8,-43.3C3.9,-41.2,3.1,-39,2.3,-36.8C1.5,-34.6,0.7,-32.4,-0.1,-30.1C-0.8,-27.9,-1.6,-25.7,-2.3,-23.5C-3,-21.3,-3.8,-19,-4.5,-16.8C-5.2,-14.6,-5.9,-12.3,-6.6,-10.1C-7.2,-7.9,-7.9,-5.6,-8.6,-3.4C-9.3,-1.2,-10,1.1,-10.6,3.3C-11.3,5.5,-12,7.8,-12.7,10C-13.4,12.2,-14.1,14.4,-14.8,16.7C-15.5,18.9,-16.2,21.1,-16.9,23.3C-17.6,25.5,-18.3,27.7,-19.1,29.9C-19.8,32.1,-20.6,34.3,-21.4,36.5C-22.2,38.7,-23,40.8,-23.8,43C-24.7,45.2,-25.5,47.3,-26.4,49.4C-27.3,51.6,-28.3,53.7,-29.2,55.7C-30.2,57.8,-31.2,59.9,-32.3,61.9C-33.3,64,-34.5,65.9,-35.6,67.9z" stroke-linejoin="round" ed:tosuperid="150" stroke-linecap="round"/><path id="116" transform="matrix(1,0,0,1,170.67,420.94)" fill="#5fb7f1" stroke="#5fb7f1" ed:parentid="149" d="M-31.3,-70.4C-32.1,-72,-33.7,-72.5,-34.9,-71.8C-36.1,-71.1,-36.5,-69.5,-35.6,-67.9C-34.5,-65.9,-33.3,-64,-32.3,-61.9C-31.2,-59.9,-30.2,-57.8,-29.2,-55.7C-28.3,-53.7,-27.3,-51.6,-26.4,-49.4C-25.5,-47.3,-24.7,-45.2,-23.8,-43C-23,-40.8,-22.2,-38.7,-21.4,-36.5C-20.6,-34.3,-19.8,-32.1,-19.1,-29.9C-18.3,-27.7,-17.6,-25.5,-16.9,-23.3C-16.2,-21.1,-15.5,-18.9,-14.8,-16.7C-14.1,-14.4,-13.4,-12.2,-12.7,-10C-12,-7.8,-11.3,-5.5,-10.6,-3.3C-10,-1.1,-9.3,1.2,-8.6,3.4C-7.9,5.6,-7.2,7.9,-6.6,10.1C-5.9,12.3,-5.2,14.6,-4.5,16.8C-3.8,19,-3,21.3,-2.3,23.5C-1.6,25.7,-0.8,27.9,-0.1,30.1C0.7,32.4,1.5,34.6,2.3,36.8C3.1,39,3.9,41.2,4.8,43.3C5.6,45.5,6.5,47.7,7.4,49.9C8.3,52,9.3,54.2,10.3,56.3C11.3,58.4,12.3,60.5,13.4,62.6C14.5,64.7,15.7,66.7,16.9,68.8C18.1,70.8,19.4,72.8,20.7,74.7C22.1,76.7,23.5,78.5,25,80.4C26.5,82.2,28,84,29.7,85.6C31.4,87.3,33.1,88.9,35,90.4C36.8,91.9,38.8,93.2,40.8,94.5C42.8,95.7,44.9,96.8,47.1,97.8C49.3,98.7,51.5,99.5,53.8,100.1C56,100.8,58.1,101.3,60.7,101.6C63.2,101.9,66.1,102.1,67.7,102.2C69.3,102.2,69.6,102.2,69.9,102.2C70.2,102.2,70.5,102,70.5,101.7C70.5,101.4,70.2,101.2,69.9,101.2C69.6,101.2,69.3,101.2,67.8,101.1C66.2,101,63.3,100.8,60.9,100.4C58.4,100.1,56.3,99.6,54.1,98.9C52,98.2,49.8,97.4,47.7,96.5C45.6,95.5,43.5,94.4,41.6,93.2C39.7,91.9,37.8,90.6,36.1,89.1C34.3,87.6,32.6,86,31,84.4C29.4,82.7,27.9,81,26.5,79.1C25.1,77.3,23.7,75.5,22.5,73.5C21.2,71.6,20,69.6,18.8,67.6C17.7,65.6,16.6,63.6,15.5,61.5C14.5,59.5,13.5,57.4,12.6,55.2C11.6,53.1,10.7,51,9.8,48.8C9,46.7,8.1,44.5,7.3,42.4C6.5,40.2,5.7,38,5,35.8C4.2,33.6,3.5,31.4,2.8,29.2C2.1,27,1.4,24.8,0.7,22.5C0,20.3,-0.7,18.1,-1.3,15.8C-2,13.6,-2.6,11.4,-3.3,9.1C-3.9,6.9,-4.6,4.7,-5.2,2.4C-5.8,0.2,-6.5,-2.1,-7.1,-4.3C-7.8,-6.6,-8.4,-8.8,-9,-11.1C-9.7,-13.3,-10.3,-15.6,-11,-17.8C-11.6,-20,-12.3,-22.3,-13,-24.5C-13.7,-26.8,-14.4,-29,-15.1,-31.2C-15.8,-33.5,-16.5,-35.7,-17.3,-37.9C-18,-40.1,-18.8,-42.4,-19.6,-44.6C-20.4,-46.8,-21.3,-49,-22.2,-51.2C-23,-53.4,-24,-55.5,-24.9,-57.7C-25.9,-59.9,-26.9,-62,-27.9,-64.1C-29,-66.3,-30.1,-68.4,-31.3,-70.4z" stroke-linejoin="round" ed:tosuperid="151" stroke-linecap="round"/><path id="117" transform="matrix(1,0,0,1,370.11,79.31)" stroke="#ff7575" fill="none" ed:parentid="150" d="M-17.5,36.6C4.2,36.6,-10.9,-36.6,17.5,-36.6" stroke-width="2" stroke-linejoin="round" ed:tosuperid="152" stroke-linecap="round"/><path id="118" transform="matrix(1,0,0,1,370.11,93.94)" stroke="#ff7575" fill="none" ed:parentid="150" d="M-17.5,21.9C1.5,21.9,-4.6,-21.9,17.5,-21.9" stroke-width="2" stroke-linejoin="round" ed:tosuperid="153" stroke-linecap="round"/><path id="119" transform="matrix(1,0,0,1,370.11,108.56)" stroke="#ff7575" fill="none" ed:parentid="150" d="M-17.5,7.3C-1.8,7.3,3,-7.3,17.5,-7.3" stroke-width="2" stroke-linejoin="round" ed:tosuperid="154" stroke-linecap="round"/><path id="120" transform="matrix(1,0,0,1,370.11,123.19)" stroke="#ff7575" fill="none" ed:parentid="150" d="M-17.5,-7.3C-1.8,-7.3,3,7.3,17.5,7.3" stroke-width="2" stroke-linejoin="round" ed:tosuperid="155" stroke-linecap="round"/><path id="121" transform="matrix(1,0,0,1,370.11,137.81)" stroke="#ff7575" fill="none" ed:parentid="150" d="M-17.5,-21.9C1.5,-21.9,-4.6,21.9,17.5,21.9" stroke-width="2" stroke-linejoin="round" ed:tosuperid="156" stroke-linecap="round"/><path id="122" transform="matrix(1,0,0,1,370.11,152.44)" stroke="#ff7575" fill="none" ed:parentid="150" d="M-17.5,-36.6C4.2,-36.6,-10.9,36.6,17.5,36.6" stroke-width="2" stroke-linejoin="round" ed:tosuperid="157" stroke-linecap="round"/><path id="123" transform="matrix(1,0,0,1,370.11,412.94)" stroke="#5fb7f1" fill="none" ed:parentid="151" d="M-17.5,109.7C7,109.7,-17.5,-109.7,17.5,-109.7" stroke-width="2" stroke-linejoin="round" ed:tosuperid="158" stroke-linecap="round"/><path id="124" transform="matrix(1,0,0,1,462.21,274)" stroke="#5fb7f1" fill="none" ed:parentid="158" d="M-17.5,29.3C2.9,29.3,-7.9,-29.3,17.5,-29.3" stroke-width="2" stroke-linejoin="round" ed:tosuperid="159" stroke-linecap="round"/><path id="125" transform="matrix(1,0,0,1,462.21,288.63)" stroke="#5fb7f1" fill="none" ed:parentid="158" d="M-17.5,14.6C-0.1,14.6,-0.9,-14.6,17.5,-14.6" stroke-width="2" stroke-linejoin="round" ed:tosuperid="160" stroke-linecap="round"/><path id="126" transform="matrix(1,0,0,1,462.21,303.25)" stroke="#5fb7f1" fill="none" ed:parentid="158" d="M-17.5,0C-3.5,0,7,0,17.5,0" stroke-width="2" stroke-linejoin="round" ed:tosuperid="161" stroke-linecap="round"/><path id="127" transform="matrix(1,0,0,1,462.21,317.88)" stroke="#5fb7f1" fill="none" ed:parentid="158" d="M-17.5,-14.6C-0.1,-14.6,-0.9,14.6,17.5,14.6" stroke-width="2" stroke-linejoin="round" ed:tosuperid="162" stroke-linecap="round"/><path id="128" transform="matrix(1,0,0,1,462.21,332.5)" stroke="#5fb7f1" fill="none" ed:parentid="158" d="M-17.5,-29.3C2.9,-29.3,-7.9,29.3,17.5,29.3" stroke-width="2" stroke-linejoin="round" ed:tosuperid="163" stroke-linecap="round"/><path id="129" transform="matrix(1,0,0,1,370.11,500.69)" stroke="#5fb7f1" fill="none" ed:parentid="151" d="M-17.5,21.9C1.5,21.9,-4.6,-21.9,17.5,-21.9" stroke-width="2" stroke-linejoin="round" ed:tosuperid="164" stroke-linecap="round"/><path id="130" transform="matrix(1,0,0,1,462.21,434.88)" stroke="#5fb7f1" fill="none" ed:parentid="164" d="M-17.5,43.9C5.2,43.9,-13.4,-43.9,17.5,-43.9" stroke-width="2" stroke-linejoin="round" ed:tosuperid="165" stroke-linecap="round"/><path id="131" transform="matrix(1,0,0,1,462.21,449.5)" stroke="#5fb7f1" fill="none" ed:parentid="164" d="M-17.5,29.3C2.9,29.3,-7.9,-29.3,17.5,-29.3" stroke-width="2" stroke-linejoin="round" ed:tosuperid="166" stroke-linecap="round"/><path id="132" transform="matrix(1,0,0,1,462.21,464.13)" stroke="#5fb7f1" fill="none" ed:parentid="164" d="M-17.5,14.6C-0.1,14.6,-0.9,-14.6,17.5,-14.6" stroke-width="2" stroke-linejoin="round" ed:tosuperid="167" stroke-linecap="round"/><path id="133" transform="matrix(1,0,0,1,462.21,478.75)" stroke="#5fb7f1" fill="none" ed:parentid="164" d="M-17.5,0C-3.5,0,7,0,17.5,0" stroke-width="2" stroke-linejoin="round" ed:tosuperid="168" stroke-linecap="round"/><path id="134" transform="matrix(1,0,0,1,462.21,493.38)" stroke="#5fb7f1" fill="none" ed:parentid="164" d="M-17.5,-14.6C-0.1,-14.6,-0.9,14.6,17.5,14.6" stroke-width="2" stroke-linejoin="round" ed:tosuperid="169" stroke-linecap="round"/><path id="135" transform="matrix(1,0,0,1,462.21,508)" stroke="#5fb7f1" fill="none" ed:parentid="164" d="M-17.5,-29.3C2.9,-29.3,-7.9,29.3,17.5,29.3" stroke-width="2" stroke-linejoin="round" ed:tosuperid="170" stroke-linecap="round"/><path id="136" transform="matrix(1,0,0,1,462.21,522.63)" stroke="#5fb7f1" fill="none" ed:parentid="164" d="M-17.5,-43.9C5.2,-43.9,-13.4,43.9,17.5,43.9" stroke-width="2" stroke-linejoin="round" ed:tosuperid="171" stroke-linecap="round"/><path id="137" transform="matrix(1,0,0,1,370.11,632.31)" stroke="#5fb7f1" fill="none" ed:parentid="151" d="M-17.5,-109.7C7,-109.7,-17.5,109.7,17.5,109.7" stroke-width="2" stroke-linejoin="round" ed:tosuperid="172" stroke-linecap="round"/><path id="138" transform="matrix(1,0,0,1,462.21,668.88)" stroke="#5fb7f1" fill="none" ed:parentid="172" d="M-17.5,73.1C7,73.1,-17.5,-73.1,17.5,-73.1" stroke-width="2" stroke-linejoin="round" ed:tosuperid="173" stroke-linecap="round"/><path id="139" transform="matrix(1,0,0,1,462.21,683.5)" stroke="#5fb7f1" fill="none" ed:parentid="172" d="M-17.5,58.5C6.7,58.5,-16.7,-58.5,17.5,-58.5" stroke-width="2" stroke-linejoin="round" ed:tosuperid="174" stroke-linecap="round"/><path id="140" transform="matrix(1,0,0,1,462.21,698.13)" stroke="#5fb7f1" fill="none" ed:parentid="172" d="M-17.5,43.9C5.2,43.9,-13.4,-43.9,17.5,-43.9" stroke-width="2" stroke-linejoin="round" ed:tosuperid="175" stroke-linecap="round"/><path id="141" transform="matrix(1,0,0,1,462.21,712.75)" stroke="#5fb7f1" fill="none" ed:parentid="172" d="M-17.5,29.3C2.9,29.3,-7.9,-29.3,17.5,-29.3" stroke-width="2" stroke-linejoin="round" ed:tosuperid="176" stroke-linecap="round"/><path id="142" transform="matrix(1,0,0,1,462.21,727.38)" stroke="#5fb7f1" fill="none" ed:parentid="172" d="M-17.5,14.6C-0.1,14.6,-0.9,-14.6,17.5,-14.6" stroke-width="2" stroke-linejoin="round" ed:tosuperid="177" stroke-linecap="round"/><path id="143" transform="matrix(1,0,0,1,462.21,742)" stroke="#5fb7f1" fill="none" ed:parentid="172" d="M-17.5,0C-3.5,0,7,0,17.5,0" stroke-width="2" stroke-linejoin="round" ed:tosuperid="178" stroke-linecap="round"/><path id="144" transform="matrix(1,0,0,1,462.21,756.63)" stroke="#5fb7f1" fill="none" ed:parentid="172" d="M-17.5,-14.6C-0.1,-14.6,-0.9,14.6,17.5,14.6" stroke-width="2" stroke-linejoin="round" ed:tosuperid="179" stroke-linecap="round"/><path id="145" transform="matrix(1,0,0,1,462.21,771.25)" stroke="#5fb7f1" fill="none" ed:parentid="172" d="M-17.5,-29.3C2.9,-29.3,-7.9,29.3,17.5,29.3" stroke-width="2" stroke-linejoin="round" ed:tosuperid="180" stroke-linecap="round"/><path id="146" transform="matrix(1,0,0,1,462.21,785.88)" stroke="#5fb7f1" fill="none" ed:parentid="172" d="M-17.5,-43.9C5.2,-43.9,-13.4,43.9,17.5,43.9" stroke-width="2" stroke-linejoin="round" ed:tosuperid="181" stroke-linecap="round"/><path id="147" transform="matrix(1,0,0,1,462.21,800.5)" stroke="#5fb7f1" fill="none" ed:parentid="172" d="M-17.5,-58.5C6.7,-58.5,-16.7,58.5,17.5,58.5" stroke-width="2" stroke-linejoin="round" ed:tosuperid="182" stroke-linecap="round"/><path id="148" transform="matrix(1,0,0,1,462.21,815.13)" stroke="#5fb7f1" fill="none" ed:parentid="172" d="M-17.5,-73.1C7,-73.1,-17.5,73.1,17.5,73.1" stroke-width="2" stroke-linejoin="round" ed:tosuperid="183" stroke-linecap="round"/><g id="149" transform="matrix(1,0,0,1,24,286.75)" ed:layout="rightmap" ed:width="153.56" ed:topictype="mainidea" ed:height="65"><path fill="#ffffff" stroke="#ffffff" d="M32.5,0L121.1,0C139,0,153.6,14.6,153.6,32.5C153.6,50.4,139,65,121.1,65L32.5,65C14.6,65,0,50.4,0,32.5C0,14.6,14.6,0,32.5,0z" stroke-width="4" stroke-linejoin="round"/><text class="st30"><tspan style="white-space:pre" y="43.5" x="28" textLength="96">接口设计</tspan></text></g><g id="150" transform="matrix(1,0,0,1,240.56,78.13)" ed:parentid="149" ed:width="112" ed:height="37.75"><path stroke="#ff7575" fill="none" d="M0,37.8L112,37.8" stroke-width="2" stroke-linejoin="round"/><text class="st31"><tspan style="white-space:pre" y="27.15" x="17" textLength="76">设计原则</tspan></text></g><g id="151" transform="matrix(1,0,0,1,240.56,484.88)" ed:parentid="149" ed:width="112" ed:height="37.75"><path stroke="#5fb7f1" fill="none" d="M0,37.8L112,37.8" stroke-width="2" stroke-linejoin="round"/><text class="st31"><tspan style="white-space:pre" y="27.15" x="17" textLength="76">设计模式</tspan></text></g><g id="152" transform="matrix(1,0,0,1,387.66,20)" ed:parentid="150" ed:width="78.21875" ed:height="22.75"><path stroke="#ff7575" fill="none" d="M0,22.8L78.2,22.8" stroke-width="2" stroke-linejoin="round"/><text class="st32"><tspan style="white-space:pre" y="16.525" x="8" textLength="60">1单一原则</tspan></text></g><g id="153" transform="matrix(1,0,0,1,387.66,49.25)" ed:parentid="150" ed:width="104.21875" ed:height="22.75"><path stroke="#ff7575" fill="none" d="M0,22.8L104.2,22.8" stroke-width="2" stroke-linejoin="round"/><text class="st32"><tspan style="white-space:pre" y="16.525" x="8" textLength="86">2里氏替换原则</tspan></text></g><g id="154" transform="matrix(1,0,0,1,387.66,78.5)" ed:parentid="150" ed:width="104.21875" ed:height="22.75"><path stroke="#ff7575" fill="none" d="M0,22.8L104.2,22.8" stroke-width="2" stroke-linejoin="round"/><text class="st32"><tspan style="white-space:pre" y="16.525" x="8" textLength="86">3依赖倒置原则</tspan></text></g><g id="155" transform="matrix(1,0,0,1,387.66,107.75)" ed:parentid="150" ed:width="82.328125" ed:height="22.75"><path stroke="#ff7575" fill="none" d="M0,22.8L82.3,22.8" stroke-width="2" stroke-linejoin="round"/><text class="st32"><tspan style="white-space:pre" y="16.525" x="8" textLength="64">4,接口隔离</tspan></text></g><g id="156" transform="matrix(1,0,0,1,387.66,137)" ed:parentid="150" ed:width="91.21875" ed:height="22.75"><path stroke="#ff7575" fill="none" d="M0,22.8L91.2,22.8" stroke-width="2" stroke-linejoin="round"/><text class="st32"><tspan style="white-space:pre" y="16.525" x="8" textLength="73">5迪米特法则</tspan></text></g><g id="157" transform="matrix(1,0,0,1,387.66,166.25)" ed:parentid="150" ed:width="78.21875" ed:height="22.75"><path stroke="#ff7575" fill="none" d="M0,22.8L78.2,22.8" stroke-width="2" stroke-linejoin="round"/><text class="st32"><tspan style="white-space:pre" y="16.525" x="8" textLength="60">6开闭原则</tspan></text></g><g id="158" transform="matrix(1,0,0,1,387.66,280.5)" ed:parentid="151" ed:width="57" ed:height="22.75"><path stroke="#5fb7f1" fill="none" d="M0,22.8L57,22.8" stroke-width="2" stroke-linejoin="round"/><text class="st32"><tspan style="white-space:pre" y="16.525" x="8" textLength="39">创建型</tspan></text></g><g id="159" transform="matrix(1,0,0,1,479.76,222)" ed:parentid="158" ed:width="44" ed:height="22.75"><path stroke="#5fb7f1" fill="none" d="M0,22.8L44,22.8" stroke-width="2" stroke-linejoin="round"/><text class="st32"><tspan style="white-space:pre" y="16.525" x="8" textLength="26">工厂</tspan></text></g><g id="160" transform="matrix(1,0,0,1,479.76,251.25)" ed:parentid="158" ed:width="70" ed:height="22.75"><path stroke="#5fb7f1" fill="none" d="M0,22.8L70,22.8" stroke-width="2" stroke-linejoin="round"/><text class="st32"><tspan style="white-space:pre" y="16.525" x="8" textLength="52">抽象工厂</tspan></text></g><g id="161" transform="matrix(1,0,0,1,479.76,280.5)" ed:parentid="158" ed:width="44" ed:height="22.75"><path stroke="#5fb7f1" fill="none" d="M0,22.8L44,22.8" stroke-width="2" stroke-linejoin="round"/><text class="st32"><tspan style="white-space:pre" y="16.525" x="8" textLength="26">单例</tspan></text></g><g id="162" transform="matrix(1,0,0,1,479.76,309.75)" ed:parentid="158" ed:width="44" ed:height="22.75"><path stroke="#5fb7f1" fill="none" d="M0,22.8L44,22.8" stroke-width="2" stroke-linejoin="round"/><text class="st32"><tspan style="white-space:pre" y="16.525" x="8" textLength="26">原型</tspan></text></g><g id="163" transform="matrix(1,0,0,1,479.76,339)" ed:parentid="158" ed:width="57" ed:height="22.75"><path stroke="#5fb7f1" fill="none" d="M0,22.8L57,22.8" stroke-width="2" stroke-linejoin="round"/><text class="st32"><tspan style="white-space:pre" y="16.525" x="8" textLength="39">建造者</tspan></text></g><g id="164" transform="matrix(1,0,0,1,387.66,456)" ed:parentid="151" ed:width="57" ed:height="22.75"><path stroke="#5fb7f1" fill="none" d="M0,22.8L57,22.8" stroke-width="2" stroke-linejoin="round"/><text class="st32"><tspan style="white-space:pre" y="16.525" x="8" textLength="39">结构型</tspan></text></g><g id="165" transform="matrix(1,0,0,1,479.76,368.25)" ed:parentid="164" ed:width="44" ed:height="22.75"><path stroke="#5fb7f1" fill="none" d="M0,22.8L44,22.8" stroke-width="2" stroke-linejoin="round"/><text class="st32"><tspan style="white-space:pre" y="16.525" x="8" textLength="26">适配</tspan></text></g><g id="166" transform="matrix(1,0,0,1,479.76,397.5)" ed:parentid="164" ed:width="44" ed:height="22.75"><path stroke="#5fb7f1" fill="none" d="M0,22.8L44,22.8" stroke-width="2" stroke-linejoin="round"/><text class="st32"><tspan style="white-space:pre" y="16.525" x="8" textLength="26">装饰</tspan></text></g><g id="167" transform="matrix(1,0,0,1,479.76,426.75)" ed:parentid="164" ed:width="44" ed:height="22.75"><path stroke="#5fb7f1" fill="none" d="M0,22.8L44,22.8" stroke-width="2" stroke-linejoin="round"/><text class="st32"><tspan style="white-space:pre" y="16.525" x="8" textLength="26">代理</tspan></text></g><g id="168" transform="matrix(1,0,0,1,479.76,456)" ed:parentid="164" ed:width="44" ed:height="22.75"><path stroke="#5fb7f1" fill="none" d="M0,22.8L44,22.8" stroke-width="2" stroke-linejoin="round"/><text class="st32"><tspan style="white-space:pre" y="16.525" x="8" textLength="26">外观</tspan></text></g><g id="169" transform="matrix(1,0,0,1,479.76,485.25)" ed:parentid="164" ed:width="44" ed:height="22.75"><path stroke="#5fb7f1" fill="none" d="M0,22.8L44,22.8" stroke-width="2" stroke-linejoin="round"/><text class="st32"><tspan style="white-space:pre" y="16.525" x="8" textLength="26">桥接</tspan></text></g><g id="170" transform="matrix(1,0,0,1,479.76,514.5)" ed:parentid="164" ed:width="44" ed:height="22.75"><path stroke="#5fb7f1" fill="none" d="M0,22.8L44,22.8" stroke-width="2" stroke-linejoin="round"/><text class="st32"><tspan style="white-space:pre" y="16.525" x="8" textLength="26">组合</tspan></text></g><g id="171" transform="matrix(1,0,0,1,479.76,543.75)" ed:parentid="164" ed:width="44" ed:height="22.75"><path stroke="#5fb7f1" fill="none" d="M0,22.8L44,22.8" stroke-width="2" stroke-linejoin="round"/><text class="st32"><tspan style="white-space:pre" y="16.525" x="8" textLength="26">享元</tspan></text></g><g id="172" transform="matrix(1,0,0,1,387.66,719.25)" ed:parentid="151" ed:width="57" ed:height="22.75"><path stroke="#5fb7f1" fill="none" d="M0,22.8L57,22.8" stroke-width="2" stroke-linejoin="round"/><text class="st32"><tspan style="white-space:pre" y="16.525" x="8" textLength="39">行为型</tspan></text></g><g id="173" transform="matrix(1,0,0,1,479.76,573)" ed:parentid="172" ed:width="44" ed:height="22.75"><path stroke="#5fb7f1" fill="none" d="M0,22.8L44,22.8" stroke-width="2" stroke-linejoin="round"/><text class="st32"><tspan style="white-space:pre" y="16.525" x="8" textLength="26">策略</tspan></text></g><g id="174" transform="matrix(1,0,0,1,479.76,602.25)" ed:parentid="172" ed:width="44" ed:height="22.75"><path stroke="#5fb7f1" fill="none" d="M0,22.8L44,22.8" stroke-width="2" stroke-linejoin="round"/><text class="st32"><tspan style="white-space:pre" y="16.525" x="8" textLength="26">模板</tspan></text></g><g id="175" transform="matrix(1,0,0,1,479.76,631.5)" ed:parentid="172" ed:width="57" ed:height="22.75"><path stroke="#5fb7f1" fill="none" d="M0,22.8L57,22.8" stroke-width="2" stroke-linejoin="round"/><text class="st32"><tspan style="white-space:pre" y="16.525" x="8" textLength="39">观察者</tspan></text></g><g id="176" transform="matrix(1,0,0,1,479.76,660.75)" ed:parentid="172" ed:width="57" ed:height="22.75"><path stroke="#5fb7f1" fill="none" d="M0,22.8L57,22.8" stroke-width="2" stroke-linejoin="round"/><text class="st32"><tspan style="white-space:pre" y="16.525" x="8" textLength="39">迭代器</tspan></text></g><g id="177" transform="matrix(1,0,0,1,479.76,690)" ed:parentid="172" ed:width="57" ed:height="22.75"><path stroke="#5fb7f1" fill="none" d="M0,22.8L57,22.8" stroke-width="2" stroke-linejoin="round"/><text class="st32"><tspan style="white-space:pre" y="16.525" x="8" textLength="39">责任链</tspan></text></g><g id="178" transform="matrix(1,0,0,1,479.76,719.25)" ed:parentid="172" ed:width="44" ed:height="22.75"><path stroke="#5fb7f1" fill="none" d="M0,22.8L44,22.8" stroke-width="2" stroke-linejoin="round"/><text class="st32"><tspan style="white-space:pre" y="16.525" x="8" textLength="26">命令</tspan></text></g><g id="179" transform="matrix(1,0,0,1,479.76,748.5)" ed:parentid="172" ed:width="57" ed:height="22.75"><path stroke="#5fb7f1" fill="none" d="M0,22.8L57,22.8" stroke-width="2" stroke-linejoin="round"/><text class="st32"><tspan style="white-space:pre" y="16.525" x="8" textLength="39">备忘录</tspan></text></g><g id="180" transform="matrix(1,0,0,1,479.76,777.75)" ed:parentid="172" ed:width="44" ed:height="22.75"><path stroke="#5fb7f1" fill="none" d="M0,22.8L44,22.8" stroke-width="2" stroke-linejoin="round"/><text class="st32"><tspan style="white-space:pre" y="16.525" x="8" textLength="26">状态</tspan></text></g><g id="181" transform="matrix(1,0,0,1,479.76,807)" ed:parentid="172" ed:width="57" ed:height="22.75"><path stroke="#5fb7f1" fill="none" d="M0,22.8L57,22.8" stroke-width="2" stroke-linejoin="round"/><text class="st32"><tspan style="white-space:pre" y="16.525" x="8" textLength="39">解释器</tspan></text></g><g id="182" transform="matrix(1,0,0,1,479.76,836.25)" ed:parentid="172" ed:width="57" ed:height="22.75"><path stroke="#5fb7f1" fill="none" d="M0,22.8L57,22.8" stroke-width="2" stroke-linejoin="round"/><text class="st32"><tspan style="white-space:pre" y="16.525" x="8" textLength="39">终结者</tspan></text></g><g id="183" transform="matrix(1,0,0,1,479.76,865.5)" ed:parentid="172" ed:width="44" ed:height="22.75"><path stroke="#5fb7f1" fill="none" d="M0,22.8L44,22.8" stroke-width="2" stroke-linejoin="round"/><text class="st32"><tspan style="white-space:pre" y="16.525" x="8" textLength="26">访问</tspan></text></g></svg>