<svg id="page300000102" xmlns:xlink="http://www.w3.org/1999/xlink" ed:name="mvc" height="456" xmlns="http://www.w3.org/2000/svg" viewBox="0 0 997 456" xmlns:ev="http://www.w3.org/2001/xml-events" xmlns:ed="https://www.edrawsoft.cn/xml/2017/SVGExtensions/" width="997" ed:vSpacing="30" ed:hSpacing="30"><style type="text/css"><![CDATA[
g[ed\:togtopicid],g[ed\:hyperlink],g[ed\:comment],g[ed\:note] {cursor:pointer;}
g[id] {-moz-user-select: none;-ms-user-select: none;user-select: none;}
svg text::selection,svg tspan::selection{background-color: #4285f4;color: #ffffff;fill: #ffffff;}
.st9 {fill:#454545;font-family:微软雅黑;font-size:14.25pt;font-weight:bold}
.st7 {fill:#454545;font-family:微软雅黑;font-size:18pt;font-weight:bold}
.st8 {fill:#454545;font-family:微软雅黑;font-size:9.75pt}
]]></style><defs/><rect height="456" fill="#ffffff" y="0" x="0" width="997"/><path id="110" transform="matrix(1,0,0,1,408.42,281.59)" stroke="#5fb7f1" fill="none" ed:parentid="148" d="M-17.5,36.8C4.2,36.8,-11,-36.8,17.5,-36.8" stroke-width="2" stroke-linejoin="round" ed:tosuperid="133" stroke-linecap="round"/><path id="111" transform="matrix(1,0,0,1,408.42,308.59)" stroke="#5fb7f1" fill="none" ed:parentid="148" d="M-17.5,9.8C-1.2,9.8,1.7,-9.8,17.5,-9.8" stroke-width="2" stroke-linejoin="round" ed:tosuperid="134" stroke-linecap="round"/><path id="112" transform="matrix(1,0,0,1,408.42,355.28)" stroke="#5fb7f1" fill="none" ed:parentid="148" d="M-17.5,-36.8C4.2,-36.8,-11,36.8,17.5,36.8" stroke-width="2" stroke-linejoin="round" ed:tosuperid="135" stroke-linecap="round"/><path id="113" transform="matrix(1,0,0,1,499.95,379)" stroke="#5fb7f1" fill="none" ed:parentid="135" d="M-17.5,13.1C-0.5,13.1,-0.1,-13.1,17.5,-13.1" stroke-width="2" stroke-linejoin="round" ed:tosuperid="136" stroke-linecap="round"/><path id="114" transform="matrix(1,0,0,1,499.95,405.25)" stroke="#5fb7f1" fill="none" ed:parentid="135" d="M-17.5,-13.1C-0.5,-13.1,-0.1,13.1,17.5,13.1" stroke-width="2" stroke-linejoin="round" ed:tosuperid="137" stroke-linecap="round"/><path id="115" transform="matrix(1,0,0,1,582.58,411.81)" stroke="#5fb7f1" fill="none" ed:parentid="137" d="M-17.5,6.6C-2,6.6,3.4,-6.6,17.5,-6.6" stroke-width="2" stroke-linejoin="round" ed:tosuperid="138" stroke-linecap="round"/><path id="116" transform="matrix(1,0,0,1,582.58,424.94)" stroke="#5fb7f1" fill="none" ed:parentid="137" d="M-17.5,-6.6C-2,-6.6,3.4,6.6,17.5,6.6" stroke-width="2" stroke-linejoin="round" ed:tosuperid="139" stroke-linecap="round"/><path id="117" transform="matrix(1,0,0,1,599.88,359.31)" stroke="#5fb7f1" fill="none" ed:parentid="136" d="M-17.5,6.6C-2,6.6,3.4,-6.6,17.5,-6.6" stroke-width="2" stroke-linejoin="round" ed:tosuperid="140" stroke-linecap="round"/><path id="118" transform="matrix(1,0,0,1,599.88,372.44)" stroke="#5fb7f1" fill="none" ed:parentid="136" d="M-17.5,-6.6C-2,-6.6,3.4,6.6,17.5,6.6" stroke-width="2" stroke-linejoin="round" ed:tosuperid="141" stroke-linecap="round"/><path id="119" transform="matrix(1,0,0,1,530.95,244.75)" stroke="#5fb7f1" fill="none" ed:parentid="133" d="M-17.5,0C-3.5,0,7,0,17.5,0" stroke-width="2" stroke-linejoin="round" ed:tosuperid="142" stroke-linecap="round"/><path id="120" transform="matrix(1,0,0,1,527.53,298.75)" stroke="#5fb7f1" fill="none" ed:parentid="134" d="M-17.5,0C-3.5,0,7,0,17.5,0" stroke-width="2" stroke-linejoin="round" ed:tosuperid="143" stroke-linecap="round"/><path id="121" transform="matrix(1,0,0,1,695.43,284.88)" stroke="#5fb7f1" fill="none" ed:parentid="143" d="M-17.5,13.9C-0.3,13.9,-0.5,-13.9,17.5,-13.9" stroke-width="2" stroke-linejoin="round" ed:tosuperid="144" stroke-linecap="round"/><path id="122" transform="matrix(1,0,0,1,695.43,299.5)" stroke="#5fb7f1" fill="none" ed:parentid="143" d="M-17.5,-0.8C-3.5,-0.8,7,0.8,17.5,0.8" stroke-width="2" stroke-linejoin="round" ed:tosuperid="145" stroke-linecap="round"/><path id="123" transform="matrix(1,0,0,1,695.43,312.63)" stroke="#5fb7f1" fill="none" ed:parentid="143" d="M-17.5,-13.9C-0.3,-13.9,-0.5,13.9,17.5,13.9" stroke-width="2" stroke-linejoin="round" ed:tosuperid="146" stroke-linecap="round"/><path id="124" transform="matrix(1,0,0,1,199.4,166.52)" fill="#ff7575" stroke="#ff7575" ed:parentid="132" d="M-24.2,18.8C-25.6,20,-25.7,21.6,-24.8,22.6C-23.9,23.7,-22.2,23.7,-20.9,22.5C-19.2,20.9,-17.5,19.2,-15.8,17.6C-14.1,15.9,-12.5,14.2,-10.9,12.5C-9.2,10.8,-7.6,9.1,-6.1,7.4C-4.5,5.6,-2.9,3.9,-1.4,2.1C0.2,0.4,1.7,-1.4,3.3,-3.1C4.8,-4.9,6.4,-6.6,7.9,-8.4C9.5,-10.1,11,-11.8,12.6,-13.5C14.2,-15.2,15.7,-16.9,17.3,-18.6C18.9,-20.3,20.6,-21.9,22.2,-23.5C23.9,-25.2,25.6,-26.7,27.3,-28.3C29,-29.8,30.8,-31.3,32.6,-32.7C34.4,-34.2,36.3,-35.5,38.2,-36.8C40.1,-38.1,42,-39.4,44,-40.5C46,-41.6,48.1,-42.7,50.2,-43.7C52.3,-44.6,54.4,-45.5,56.6,-46.2C58.8,-47,61,-47.6,63.2,-48.2C65.4,-48.7,67.6,-49.1,70,-49.4C72.5,-49.7,75.3,-50,76.9,-50.1C78.6,-50.2,79,-50.2,79.5,-50.1C79.8,-50.1,80.1,-50.4,80.1,-50.6C80.1,-50.9,79.8,-51.1,79.5,-51.1C79,-51.2,78.6,-51.2,76.9,-51.1C75.3,-51.1,72.4,-51,69.9,-50.7C67.3,-50.5,65.2,-50.1,62.9,-49.6C60.6,-49.2,58.3,-48.6,56,-47.9C53.8,-47.2,51.6,-46.4,49.4,-45.4C47.2,-44.5,45.1,-43.5,43,-42.4C40.9,-41.3,38.8,-40.1,36.9,-38.8C34.9,-37.6,32.9,-36.2,31,-34.8C29.1,-33.4,27.3,-31.9,25.5,-30.4C23.7,-28.9,21.9,-27.3,20.1,-25.8C18.4,-24.2,16.7,-22.6,15,-20.9C13.4,-19.3,11.7,-17.6,10.1,-15.9C8.4,-14.2,6.8,-12.6,5.2,-10.9C3.6,-9.2,2,-7.5,0.4,-5.8C-1.2,-4.1,-2.8,-2.4,-4.4,-0.7C-6,1,-7.6,2.7,-9.2,4.4C-10.8,6,-12.5,7.7,-14.1,9.3C-15.8,11,-17.4,12.6,-19.1,14.1C-20.8,15.7,-22.5,17.2,-24.2,18.8z" stroke-linejoin="round" ed:tosuperid="147" stroke-linecap="round"/><path id="125" transform="matrix(1,0,0,1,199.4,267.8)" fill="#5fb7f1" stroke="#5fb7f1" ed:parentid="132" d="M-20.9,-22.5C-22.2,-23.7,-23.9,-23.7,-24.8,-22.6C-25.7,-21.6,-25.6,-20,-24.2,-18.8C-22.5,-17.2,-20.8,-15.7,-19.1,-14.1C-17.4,-12.6,-15.8,-11,-14.1,-9.3C-12.5,-7.7,-10.8,-6,-9.2,-4.4C-7.6,-2.7,-6,-1,-4.4,0.7C-2.8,2.4,-1.2,4.1,0.4,5.8C2,7.5,3.6,9.2,5.2,10.9C6.8,12.6,8.4,14.2,10.1,15.9C11.7,17.6,13.4,19.3,15,20.9C16.7,22.6,18.4,24.2,20.1,25.8C21.9,27.3,23.7,28.9,25.5,30.4C27.3,31.9,29.1,33.4,31,34.8C32.9,36.2,34.9,37.6,36.9,38.8C38.8,40.1,40.9,41.3,43,42.4C45.1,43.5,47.2,44.5,49.4,45.4C51.6,46.4,53.8,47.2,56,47.9C58.3,48.6,60.6,49.2,62.9,49.6C65.2,50.1,67.3,50.5,69.9,50.7C72.4,51,75.3,51.1,76.9,51.1C78.6,51.2,79,51.2,79.5,51.1C79.8,51.1,80.1,50.9,80.1,50.6C80.1,50.4,79.8,50.1,79.5,50.1C79,50.2,78.6,50.2,76.9,50.1C75.3,50,72.5,49.7,70,49.4C67.6,49.1,65.4,48.7,63.2,48.2C61,47.6,58.8,47,56.6,46.2C54.4,45.5,52.3,44.6,50.2,43.7C48.1,42.7,46,41.6,44,40.5C42,39.4,40.1,38.1,38.2,36.8C36.3,35.5,34.4,34.2,32.6,32.7C30.8,31.3,29,29.8,27.3,28.3C25.6,26.7,23.9,25.2,22.2,23.5C20.6,21.9,18.9,20.3,17.3,18.6C15.7,16.9,14.2,15.2,12.6,13.5C11,11.8,9.5,10.1,7.9,8.4C6.4,6.6,4.8,4.9,3.3,3.1C1.7,1.4,0.2,-0.4,-1.4,-2.1C-2.9,-3.9,-4.5,-5.6,-6.1,-7.4C-7.6,-9.1,-9.2,-10.8,-10.9,-12.5C-12.5,-14.2,-14.1,-15.9,-15.8,-17.6C-17.5,-19.2,-19.2,-20.9,-20.9,-22.5z" stroke-linejoin="round" ed:tosuperid="148" stroke-linecap="round"/><path id="126" transform="matrix(1,0,0,1,408.42,79.31)" stroke="#ff7575" fill="none" ed:parentid="147" d="M-17.5,36.6C4.2,36.6,-10.9,-36.6,17.5,-36.6" stroke-width="2" stroke-linejoin="round" ed:tosuperid="149" stroke-linecap="round"/><path id="127" transform="matrix(1,0,0,1,408.42,93.94)" stroke="#ff7575" fill="none" ed:parentid="147" d="M-17.5,21.9C1.5,21.9,-4.6,-21.9,17.5,-21.9" stroke-width="2" stroke-linejoin="round" ed:tosuperid="150" stroke-linecap="round"/><path id="128" transform="matrix(1,0,0,1,408.42,108.56)" stroke="#ff7575" fill="none" ed:parentid="147" d="M-17.5,7.3C-1.8,7.3,3,-7.3,17.5,-7.3" stroke-width="2" stroke-linejoin="round" ed:tosuperid="151" stroke-linecap="round"/><path id="129" transform="matrix(1,0,0,1,408.42,123.19)" stroke="#ff7575" fill="none" ed:parentid="147" d="M-17.5,-7.3C-1.8,-7.3,3,7.3,17.5,7.3" stroke-width="2" stroke-linejoin="round" ed:tosuperid="152" stroke-linecap="round"/><path id="130" transform="matrix(1,0,0,1,408.42,137.81)" stroke="#ff7575" fill="none" ed:parentid="147" d="M-17.5,-21.9C1.5,-21.9,-4.6,21.9,17.5,21.9" stroke-width="2" stroke-linejoin="round" ed:tosuperid="153" stroke-linecap="round"/><path id="131" transform="matrix(1,0,0,1,408.42,152.44)" stroke="#ff7575" fill="none" ed:parentid="147" d="M-17.5,-36.6C4.2,-36.6,-10.9,36.6,17.5,36.6" stroke-width="2" stroke-linejoin="round" ed:tosuperid="154" stroke-linecap="round"/><g id="132" transform="matrix(1,0,0,1,24,187.16)" ed:layout="rightmap" ed:width="191.86625" ed:topictype="mainidea" ed:height="60"><path fill="#ffffff" stroke="#ffffff" d="M30,0L161.9,0C178.4,0,191.9,13.4,191.9,30C191.9,46.6,178.4,60,161.9,60L30,60C13.4,60,0,46.6,0,30C0,13.4,13.4,0,30,0z" stroke-width="4" stroke-linejoin="round"/><text class="st7"><tspan style="white-space:pre" y="38.5" x="27" textLength="138">spring mvc</tspan></text></g><g id="133" transform="matrix(1,0,0,1,425.97,225)" ed:parentid="148" ed:width="87.4375" ed:height="19.75"><path stroke="#5fb7f1" fill="none" d="M0,19.8L87.4,19.8" stroke-width="2" stroke-linejoin="round"/><text class="st8"><tspan style="white-space:pre" y="13.525" x="9" textLength="69">interceptor</tspan></text></g><g id="134" transform="matrix(1,0,0,1,425.97,279)" ed:parentid="148" ed:width="84.015625" ed:height="19.75"><path stroke="#5fb7f1" fill="none" d="M0,19.8L84,19.8" stroke-width="2" stroke-linejoin="round"/><text class="st8"><tspan style="white-space:pre" y="13.525" x="9" textLength="66">dispatcher</tspan></text></g><g id="135" transform="matrix(1,0,0,1,425.97,372.38)" ed:parentid="148" ed:width="56.4375" ed:height="19.75"><path stroke="#5fb7f1" fill="none" d="M0,19.8L56.4,19.8" stroke-width="2" stroke-linejoin="round"/><text class="st8"><tspan style="white-space:pre" y="13.525" x="9" textLength="38">server</tspan></text></g><g id="136" transform="matrix(1,0,0,1,517.5,346.13)" ed:parentid="135" ed:width="64.828125" ed:height="19.75"><path stroke="#5fb7f1" fill="none" d="M0,19.8L64.8,19.8" stroke-width="2" stroke-linejoin="round"/><text class="st8"><tspan style="white-space:pre" y="13.525" x="9" textLength="47">listener</tspan></text></g><g id="137" transform="matrix(1,0,0,1,517.5,398.63)" ed:parentid="135" ed:width="47.53125" ed:height="19.75"><path stroke="#5fb7f1" fill="none" d="M0,19.8L47.5,19.8" stroke-width="2" stroke-linejoin="round"/><text class="st8"><tspan style="white-space:pre" y="13.525" x="9" textLength="30">filter</tspan></text></g><g id="138" transform="matrix(1,0,0,1,600.13,385.5)" ed:parentid="137" ed:width="155.734375" ed:height="19.75"><path stroke="#5fb7f1" fill="none" d="M0,19.8L155.7,19.8" stroke-width="2" stroke-linejoin="round"/><text class="st8"><tspan style="white-space:pre" y="13.525" x="8" textLength="138">FilterRegistrationBean</tspan></text></g><g id="139" transform="matrix(1,0,0,1,600.13,411.75)" ed:parentid="137" ed:width="87.546875" ed:height="19.75"><path stroke="#5fb7f1" fill="none" d="M0,19.8L87.5,19.8" stroke-width="2" stroke-linejoin="round"/><text class="st8"><tspan style="white-space:pre" y="13.525" x="8" textLength="70">@WebFilter</tspan></text></g><g id="140" transform="matrix(1,0,0,1,617.43,333)" ed:parentid="136" ed:width="215.96875" ed:height="19.75"><path stroke="#5fb7f1" fill="none" d="M0,19.8L216,19.8" stroke-width="2" stroke-linejoin="round"/><text class="st8"><tspan style="white-space:pre" y="13.525" x="8" textLength="198">ServletListenerRegistrationBean</tspan></text></g><g id="141" transform="matrix(1,0,0,1,617.43,359.25)" ed:parentid="136" ed:width="105.671875" ed:height="19.75"><path stroke="#5fb7f1" fill="none" d="M0,19.8L105.7,19.8" stroke-width="2" stroke-linejoin="round"/><text class="st8"><tspan style="white-space:pre" y="13.525" x="8" textLength="88">@WebListener</tspan></text></g><g id="142" transform="matrix(1,0,0,1,548.5,222)" ed:parentid="133" ed:width="327.234375" ed:height="22.75"><path stroke="#5fb7f1" fill="none" d="M0,22.8L327.2,22.8" stroke-width="2" stroke-linejoin="round"/><text class="st8"><tspan style="white-space:pre" y="16.525" x="8" textLength="309">继承HandlerInterceptor然后添加到addInterceptors</tspan></text></g><g id="143" transform="matrix(1,0,0,1,545.08,279)" ed:parentid="134" ed:width="132.796875" ed:height="19.75"><path stroke="#5fb7f1" fill="none" d="M0,19.8L132.8,19.8" stroke-width="2" stroke-linejoin="round"/><text class="st8"><tspan style="white-space:pre" y="13.525" x="8" textLength="115">ExceptionResolver</tspan></text></g><g id="144" transform="matrix(1,0,0,1,712.98,251.25)" ed:parentid="143" ed:width="260.78125" ed:height="19.75"><path stroke="#5fb7f1" fill="none" d="M0,19.8L260.8,19.8" stroke-width="2" stroke-linejoin="round"/><text class="st8"><tspan style="white-space:pre" y="13.525" x="8" textLength="243">1,configureHandlerExceptionResolvers</tspan></text></g><g id="145" transform="matrix(1,0,0,1,712.98,277.5)" ed:parentid="143" ed:width="262.09375" ed:height="22.75"><path stroke="#5fb7f1" fill="none" d="M0,22.8L262.1,22.8" stroke-width="2" stroke-linejoin="round"/><text class="st8"><tspan style="white-space:pre" y="16.525" x="8" textLength="244">2,@ControllerAdvice(1存在则2不能存在)</tspan></text></g><g id="146" transform="matrix(1,0,0,1,712.98,306.75)" ed:parentid="143" ed:width="244.53125" ed:height="19.75"><path stroke="#5fb7f1" fill="none" d="M0,19.8L244.5,19.8" stroke-width="2" stroke-linejoin="round"/><text class="st8"><tspan style="white-space:pre" y="13.525" x="8" textLength="227">3,extendHandlerExceptionResolvers</tspan></text></g><g id="147" transform="matrix(1,0,0,1,278.87,78.13)" ed:parentid="132" ed:width="112" ed:height="37.75"><path stroke="#ff7575" fill="none" d="M0,37.8L112,37.8" stroke-width="2" stroke-linejoin="round"/><text class="st9"><tspan style="white-space:pre" y="27.15" x="17" textLength="76">运行原理</tspan></text></g><g id="148" transform="matrix(1,0,0,1,278.87,280.69)" ed:parentid="132" ed:width="112" ed:height="37.75"><path stroke="#5fb7f1" fill="none" d="M0,37.8L112,37.8" stroke-width="2" stroke-linejoin="round"/><text class="st9"><tspan style="white-space:pre" y="27.15" x="17" textLength="76">运行组件</tspan></text></g><g id="149" transform="matrix(1,0,0,1,425.97,20)" ed:parentid="147" ed:width="231.6875" ed:height="22.75"><path stroke="#ff7575" fill="none" d="M0,22.8L231.7,22.8" stroke-width="2" stroke-linejoin="round"/><text class="st8"><tspan style="white-space:pre" y="16.525" x="8" textLength="214">客户端请求提交的DispatcherServlet</tspan></text></g><g id="150" transform="matrix(1,0,0,1,425.97,49.25)" ed:parentid="147" ed:width="270.546875" ed:height="22.75"><path stroke="#ff7575" fill="none" d="M0,22.8L270.5,22.8" stroke-width="2" stroke-linejoin="round"/><text class="st8"><tspan style="white-space:pre" y="16.525" x="8" textLength="253">由DispatcherServlet选择HandlerMapping</tspan></text></g><g id="151" transform="matrix(1,0,0,1,425.97,78.5)" ed:parentid="147" ed:width="199.859375" ed:height="22.75"><path stroke="#ff7575" fill="none" d="M0,22.8L199.9,22.8" stroke-width="2" stroke-linejoin="round"/><text class="st8"><tspan style="white-space:pre" y="16.525" x="8" textLength="182">将请求提交到HandlerMapping</tspan></text></g><g id="152" transform="matrix(1,0,0,1,425.97,107.75)" ed:parentid="147" ed:width="279.875" ed:height="22.75"><path stroke="#ff7575" fill="none" d="M0,22.8L279.9,22.8" stroke-width="2" stroke-linejoin="round"/><text class="st8"><tspan style="white-space:pre" y="16.525" x="8" textLength="262">HandlerMapping处理后返回ModelAndView</tspan></text></g><g id="153" transform="matrix(1,0,0,1,425.97,137)" ed:parentid="147" ed:width="482.65625" ed:height="22.75"><path stroke="#ff7575" fill="none" d="M0,22.8L482.7,22.8" stroke-width="2" stroke-linejoin="round"/><text class="st8"><tspan style="white-space:pre" y="16.525" x="8" textLength="465">DispatcherServlet选择ViewResoler视图解析器,找到ModelAndView指定的视图</tspan></text></g><g id="154" transform="matrix(1,0,0,1,425.97,166.25)" ed:parentid="147" ed:width="187" ed:height="22.75"><path stroke="#ff7575" fill="none" d="M0,22.8L187,22.8" stroke-width="2" stroke-linejoin="round"/><text class="st8"><tspan style="white-space:pre" y="16.525" x="8" textLength="169">视图复杂将结果显示到客户端</tspan></text></g></svg>